<svg version="1.1" id="Layer_1" xmlns="http://www.w3.org/2000/svg" xmlns:xlink="http://www.w3.org/1999/xlink" x="0px" y="0px"
	 width="100%" viewBox="0 0 2196 3958" enable-background="new 0 0 2196 3958" xml:space="preserve">
<path fill="transparent" opacity="1.000000" stroke="none" 
	d="
M1762.446777,3959.381104 
	C1671.958252,3960.000000 1581.916382,3960.000000 1490.937256,3960.000000 
	C1486.371704,3955.041992 1489.846680,3951.132080 1492.110229,3947.249268 
	C1509.043701,3918.204834 1525.059448,3888.610596 1542.977905,3860.163330 
	C1549.220703,3850.252441 1549.697510,3842.291504 1543.404541,3831.975098 
	C1525.556641,3802.714844 1508.858154,3772.753906 1491.983521,3742.911621 
	C1487.995483,3735.859375 1482.758789,3732.388428 1474.328369,3732.453613 
	C1438.699951,3732.730469 1403.067139,3732.678467 1367.437622,3732.474609 
	C1360.601074,3732.435547 1356.369751,3735.001953 1352.997559,3740.865967 
	C1334.078735,3773.762695 1315.347900,3806.769287 1296.104614,3839.477539 
	C1293.246582,3844.335449 1294.694824,3848.250244 1297.013306,3852.527100 
	C1308.122681,3873.021240 1320.498169,3892.789062 1331.790161,3913.170410 
	C1338.406738,3925.113525 1345.812134,3936.583740 1352.313721,3948.581787 
	C1354.026978,3951.742920 1356.510254,3954.762695 1354.461670,3959.395508 
	C903.513062,3960.000000 453.026093,3960.000000 2.000000,3960.000000 
	C2.000000,3679.958496 2.000000,3399.916504 2.000000,3118.937256 
	C6.612123,3114.498535 10.227207,3117.915283 13.829167,3119.938232 
	C44.903103,3137.392578 75.621223,3155.470947 106.301590,3173.598389 
	C114.126686,3178.221924 120.338387,3178.932861 128.320053,3174.152588 
	C158.893356,3155.843506 189.922943,3138.302979 220.775452,3120.464844 
	C226.958145,3116.890381 229.605942,3112.510498 229.549683,3105.240967 
	C229.268707,3068.930176 229.326813,3032.615234 229.507477,2996.303223 
	C229.540726,2989.622559 227.483597,2985.032227 221.512817,2981.586914 
	C189.490875,2963.109375 157.188004,2945.114014 125.498619,2926.066650 
	C119.402397,2922.402588 114.361359,2923.795654 108.776985,2927.089844 
	C79.227608,2944.519043 49.218826,2961.155518 19.644209,2978.545654 
	C14.577028,2981.525146 9.790338,2985.592529 2.620192,2984.447266 
	C2.000000,2893.291504 2.000000,2802.583008 2.000000,2710.937256 
	C6.479064,2707.135742 9.609308,2710.766113 12.850106,2712.570068 
	C43.423920,2729.585449 73.797188,2746.973389 103.780289,2764.992188 
	C113.951393,2771.104980 121.571030,2771.046631 131.917679,2764.860352 
	C160.506897,2747.767578 189.284775,2730.933838 218.530792,2714.961182 
	C226.033844,2710.863281 229.729050,2705.941162 229.616241,2696.906494 
	C229.175186,2661.581055 229.249756,2626.245361 229.573959,2590.917480 
	C229.650208,2582.608643 226.938171,2577.327881 219.581268,2573.212158 
	C188.174759,2555.643311 157.198685,2537.314453 125.965836,2519.435059 
	C119.984871,2516.011230 115.143799,2516.080566 109.294487,2519.509277 
	C77.960449,2537.877686 46.291985,2555.671387 15.012519,2574.137939 
	C11.376148,2576.284912 8.034346,2579.484619 2.618596,2578.441406 
	C2.000000,1719.522461 2.000000,861.044861 2.000000,2.000000 
	C466.708313,2.000000 931.416809,2.000000 1397.062744,2.000000 
	C1400.224731,9.206830 1393.624634,10.192388 1389.946167,12.327297 
	C1362.303345,28.370409 1335.000366,45.040783 1306.870972,60.187672 
	C1294.841919,66.664970 1289.812622,74.196579 1290.297363,88.302795 
	C1291.428711,121.231316 1290.824463,154.226517 1290.536743,187.191193 
	C1290.467285,195.133316 1293.241211,200.186096 1300.161621,204.113953 
	C1330.563599,221.369476 1360.973145,238.626602 1390.954834,256.599579 
	C1399.464233,261.700684 1406.328003,261.680664 1414.803955,256.424591 
	C1444.514038,238.001038 1475.259033,221.314316 1505.426270,203.648056 
	C1511.008057,200.379364 1513.446533,196.550308 1513.418213,190.119049 
	C1513.255249,153.156525 1513.225098,116.192078 1513.433716,79.230118 
	C1513.477417,71.472832 1509.928833,67.017715 1503.594971,63.403622 
	C1474.967773,47.068729 1446.472168,30.502750 1418.027710,13.851283 
	C1413.621948,11.272261 1407.835938,9.848393 1407.568604,2.661107 
	C1482.041748,2.000000 1556.083618,2.000000 1631.062744,2.000000 
	C1634.778198,8.608871 1629.009155,9.994898 1625.374390,12.134412 
	C1596.103882,29.363913 1566.631104,46.250443 1537.141235,63.097614 
	C1529.466553,67.482094 1526.431763,72.706276 1526.516235,81.425140 
	C1526.854736,116.391724 1526.924072,151.367020 1526.476196,186.331177 
	C1526.357788,195.577057 1529.731812,200.979263 1537.619873,205.443298 
	C1568.626099,222.990356 1599.368042,241.005539 1630.168579,258.914642 
	C1635.347656,261.926117 1639.756958,262.054779 1645.023804,258.970734 
	C1676.630737,240.463104 1708.287964,222.037048 1740.136475,203.948715 
	C1747.150757,199.964905 1749.510376,194.638489 1749.454224,186.828156 
	C1749.200073,151.527069 1749.156128,116.221275 1749.484619,80.921455 
	C1749.559814,72.836998 1746.412720,68.076591 1739.647095,64.148087 
	C1709.410889,46.591133 1678.979980,29.367632 1648.947754,11.460824 
	C1645.661011,9.501048 1641.283569,8.384495 1641.569824,2.661712 
	C1717.375122,2.000000 1792.750244,2.000000 1869.062744,2.000000 
	C1872.418701,8.251482 1866.819702,9.200329 1863.529907,11.136930 
	C1832.530518,29.385782 1801.352539,47.330837 1770.226074,65.361176 
	C1763.284912,69.381935 1760.435425,74.023575 1760.514160,82.055389 
	C1760.857666,117.030853 1760.873169,152.013840 1760.513062,186.988907 
	C1760.422729,195.779800 1763.697998,201.279068 1771.143799,205.531265 
	C1801.512207,222.874191 1831.912964,240.170013 1861.892334,258.178802 
	C1869.284912,262.619446 1875.494751,262.712921 1883.143677,258.223297 
	C1912.152344,241.196060 1941.102539,224.045532 1970.549072,207.787704 
	C1979.712402,202.728516 1983.821777,196.741058 1983.598877,185.786133 
	C1982.894409,151.154724 1983.151733,116.498222 1983.475342,81.855560 
	C1983.552856,73.559868 1980.895386,68.438980 1973.427368,64.321732 
	C1943.386353,47.759537 1914.097656,29.869524 1884.281006,12.900580 
	C1880.385864,10.683861 1875.503174,9.063648 1875.568481,2.662753 
	C1983.294434,2.000000 2090.588867,2.000000 2198.000000,2.000000 
	C2198.000000,698.708496 2198.000000,1395.416992 2198.000000,2093.062744 
	C2191.628174,2097.167480 2187.110840,2092.449219 2182.558350,2089.774414 
	C2153.541016,2072.726807 2124.044434,2056.494629 2095.314209,2038.975952 
	C2087.742920,2034.359253 2081.658691,2034.193848 2074.167480,2038.662231 
	C2043.263672,2057.095215 2012.039551,2074.988281 1980.861694,2092.954834 
	C1974.968750,2096.350342 1972.433838,2100.548828 1972.472046,2107.385498 
	C1972.675049,2143.710693 1972.698608,2180.039062 1972.459229,2216.363770 
	C1972.411499,2223.596680 1975.096680,2228.133789 1981.276733,2231.670654 
	C2013.086426,2249.875732 2044.962402,2267.971191 2076.444092,2286.739502 
	C2082.019043,2290.063232 2086.719971,2289.973633 2092.230957,2286.752930 
	C2122.435303,2269.101074 2152.877930,2251.858887 2183.081787,2234.204102 
	C2187.319824,2231.727051 2191.245605,2228.216553 2197.384277,2229.552979 
	C2198.000000,2806.418213 2198.000000,3382.836670 2198.000000,3960.000000 
	C2097.959473,3960.000000 1997.916992,3960.000000 1896.937256,3960.000000 
	C1893.260498,3955.980469 1896.418823,3953.037842 1898.054810,3950.017822 
	C1915.498169,3917.819580 1934.390381,3886.445312 1952.620728,3854.695068 
	C1956.141602,3848.562988 1956.957275,3843.677002 1953.264404,3837.218262 
	C1934.760620,3804.854248 1915.758911,3772.778320 1897.358398,3740.357422 
	C1894.162476,3734.726318 1889.899902,3732.505127 1883.586548,3732.523193 
	C1847.290283,3732.627930 1810.992920,3732.659668 1774.697021,3732.499268 
	C1767.901367,3732.469238 1763.600464,3735.094238 1760.187500,3740.909912 
	C1741.317261,3773.064209 1723.000610,3805.537598 1704.159424,3837.706787 
	C1700.910889,3843.253174 1701.371582,3848.148682 1704.524048,3853.596924 
	C1722.856689,3885.282715 1740.974121,3917.092529 1759.507935,3948.662354 
	C1761.343506,3951.788818 1763.785522,3954.718506 1762.446777,3959.381104 
z"/>
<path fill="#F4F4F4" opacity="1.000000" stroke="none" 
	d="
M1762.937256,3960.000000 
	C1761.857788,3956.863770 1760.150269,3954.379395 1758.645508,3951.790283 
	C1744.826660,3928.012207 1731.024780,3904.224121 1717.229370,3880.432617 
	C1711.734863,3870.956787 1706.604126,3861.246582 1700.641479,3852.076172 
	C1697.860840,3847.799316 1697.596558,3844.292480 1699.932495,3840.113525 
	C1704.469238,3831.997070 1708.530151,3823.581543 1713.526123,3815.761230 
	C1725.330933,3797.281738 1735.452515,3777.846436 1746.507568,3758.944580 
	C1751.031006,3751.210205 1755.722778,3743.571533 1760.103394,3735.757812 
	C1762.760132,3731.018799 1766.691406,3729.899902 1771.776978,3729.940918 
	C1792.422485,3730.106934 1813.069946,3730.010010 1833.716797,3730.010010 
	C1851.033447,3730.010010 1868.354980,3730.243896 1885.664429,3729.890381 
	C1892.215332,3729.756348 1895.890381,3732.283936 1899.088501,3737.886963 
	C1914.876953,3765.548584 1930.336060,3793.404785 1947.069580,3820.522217 
	C1951.075073,3827.013184 1953.842896,3834.213623 1958.172607,3840.569092 
	C1960.646606,3844.200684 1960.037842,3847.611572 1957.667480,3851.613770 
	C1938.217285,3884.451660 1918.853516,3917.344238 1900.536133,3950.836426 
	C1899.111938,3953.440674 1897.609619,3956.002441 1896.071777,3959.291992 
	C1851.958252,3960.000000 1807.916382,3960.000000 1762.937256,3960.000000 
z"/>
<path fill="#F4F4F4" opacity="1.000000" stroke="none" 
	d="
M1354.937256,3960.000000 
	C1353.905884,3952.506104 1348.919189,3946.955566 1345.312134,3941.337402 
	C1333.987915,3923.697266 1324.929443,3904.786621 1313.736694,3887.083496 
	C1305.933228,3874.741211 1299.333252,3861.643555 1291.915527,3849.048340 
	C1290.125610,3846.009033 1290.196045,3843.933105 1291.960449,3840.921387 
	C1312.254883,3806.277832 1332.511108,3771.609619 1352.411743,3736.739502 
	C1355.333252,3731.620361 1358.584595,3729.879639 1364.249390,3729.908691 
	C1402.246460,3730.103271 1440.245850,3730.137207 1478.242188,3729.882080 
	C1484.422852,3729.840576 1488.507935,3732.279053 1491.442505,3737.092285 
	C1496.436768,3745.283203 1501.184570,3753.625977 1505.963623,3761.946533 
	C1515.375244,3778.333252 1524.721802,3794.757324 1534.126465,3811.148193 
	C1540.076660,3821.518555 1546.064453,3831.867920 1552.077759,3842.201660 
	C1553.558472,3844.746338 1553.413574,3846.747314 1551.774170,3849.470459 
	C1542.181885,3865.401855 1532.878174,3881.507812 1523.544189,3897.593750 
	C1512.875732,3915.979248 1502.276123,3934.404541 1491.649902,3952.814453 
	C1490.635376,3954.571777 1489.940430,3956.427246 1490.006592,3959.250244 
	C1445.291504,3960.000000 1400.583130,3960.000000 1354.937256,3960.000000 
z"/>
<path fill="#F4F4F4" opacity="1.000000" stroke="none" 
	d="
M2.000000,2578.937256 
	C6.044960,2578.038818 8.531013,2574.860596 11.617663,2573.084229 
	C44.131664,2554.369873 76.551071,2535.490967 108.933723,2516.549561 
	C114.747398,2513.149170 119.314064,2512.155273 126.049713,2516.398926 
	C145.136398,2528.425293 165.082413,2539.086426 184.678543,2550.305664 
	C198.512070,2558.225342 212.300613,2566.224365 226.165588,2574.088623 
	C230.389648,2576.484619 232.075867,2579.831055 232.061859,2584.705078 
	C231.947800,2624.354736 231.965515,2664.005371 232.044189,2703.655518 
	C232.052261,2707.722168 230.817825,2710.479736 227.109268,2712.575439 
	C215.839630,2718.943848 204.789932,2725.699707 193.569366,2732.156738 
	C169.967560,2745.738281 146.222900,2759.074951 122.767708,2772.903564 
	C118.999992,2775.125000 116.981880,2775.070068 113.219673,2772.892822 
	C76.732727,2751.779541 40.045269,2731.012695 2.707520,2710.073242 
	C2.000000,2666.624756 2.000000,2623.249756 2.000000,2578.937256 
z"/>
<path fill="#F4F4F4" opacity="1.000000" stroke="none" 
	d="
M2.000000,2984.937256 
	C8.018939,2982.864746 13.062989,2979.549805 18.222500,2976.575195 
	C37.774387,2965.303711 57.263580,2953.923584 76.779495,2942.589355 
	C87.685280,2936.255859 98.803711,2930.256592 109.427711,2923.481689 
	C115.647415,2919.515381 120.577545,2919.925049 126.804497,2923.650146 
	C150.158035,2937.620605 173.833542,2951.052734 197.391891,2964.680664 
	C206.875290,2970.166504 216.363098,2975.644775 225.857101,2981.112549 
	C230.220154,2983.625000 232.183594,2986.920654 232.145279,2992.397461 
	C231.872635,3031.367188 231.913376,3070.340576 232.102386,3109.311279 
	C232.127960,3114.586182 230.643143,3117.568604 225.803040,3120.296875 
	C200.939423,3134.312988 176.356186,3148.826660 151.681534,3163.177734 
	C142.213165,3168.684570 132.607666,3173.978516 123.375534,3179.857422 
	C119.361778,3182.413574 115.978966,3182.256836 112.256248,3180.084717 
	C95.342644,3170.216553 78.457008,3160.300781 61.539768,3150.438721 
	C43.189098,3139.741211 24.821886,3129.072266 6.426304,3118.452393 
	C5.629056,3117.991943 4.475730,3118.148193 2.744084,3118.008545 
	C2.000000,3073.958252 2.000000,3029.916260 2.000000,2984.937256 
z"/>
<path fill="#F4F4F4" opacity="1.000000" stroke="none" 
	d="
M1407.166748,2.000000 
	C1408.535645,6.873870 1412.952637,8.067048 1416.175537,9.945874 
	C1446.853638,27.828917 1477.606934,45.585114 1508.473145,63.141029 
	C1513.671997,66.098000 1516.156738,69.522003 1516.120361,75.752289 
	C1515.892334,115.048241 1515.902832,154.346741 1516.122437,193.642792 
	C1516.152832,199.102448 1514.167847,201.762512 1509.489380,204.412247 
	C1486.104980,217.656815 1463.022217,231.432388 1439.779053,244.927948 
	C1428.869507,251.262314 1417.831543,257.375305 1406.865967,263.613434 
	C1403.769043,265.375183 1401.346680,265.353516 1397.853149,263.318909 
	C1364.583496,243.943039 1331.142578,224.858963 1297.646729,205.875076 
	C1290.658325,201.914429 1287.642212,197.017838 1287.768799,188.469070 
	C1288.311035,151.844040 1288.132812,115.205475 1287.882935,78.574135 
	C1287.835449,71.608307 1289.380249,67.362160 1296.173828,63.594524 
	C1326.061157,47.019379 1355.509155,29.647560 1384.993408,12.354774 
	C1389.458862,9.735760 1394.641357,7.933781 1397.901123,2.687308 
	C1400.777832,2.000000 1403.555542,2.000000 1407.166748,2.000000 
z"/>
<path fill="#F4F4F4" opacity="1.000000" stroke="none" 
	d="
M1641.166748,2.000000 
	C1641.999512,5.358817 1644.737427,6.215229 1647.010132,7.533889 
	C1680.008057,26.680906 1712.948120,45.928944 1746.054199,64.886833 
	C1750.426880,67.390755 1752.087769,70.252655 1752.071411,75.151077 
	C1751.940063,114.436981 1751.926147,153.723801 1752.086792,193.009476 
	C1752.107300,198.010834 1750.237793,200.942017 1745.998169,203.328568 
	C1735.594482,209.185013 1725.421631,215.449768 1715.101807,221.457138 
	C1696.465942,232.305450 1677.799438,243.101349 1659.124390,253.882080 
	C1655.099365,256.205597 1650.388672,257.713928 1647.034180,260.747986 
	C1640.104248,267.016235 1634.305298,264.624451 1627.477417,260.543610 
	C1607.546509,248.631424 1587.301880,237.245087 1567.196777,225.623718 
	C1554.557495,218.317749 1541.946289,210.963318 1529.326660,203.623199 
	C1525.532715,201.416473 1523.932007,198.209320 1523.943115,193.720764 
	C1524.041504,153.768799 1524.036987,113.816422 1523.954468,73.864395 
	C1523.944946,69.304436 1525.921875,66.340790 1529.697144,64.185455 
	C1548.427979,53.491909 1567.140991,42.767200 1585.864624,32.061058 
	C1599.978638,23.990652 1614.095215,15.924741 1628.221680,7.876209 
	C1630.032227,6.844641 1631.453125,5.557563 1631.927002,2.704687 
	C1634.777832,2.000000 1637.555542,2.000000 1641.166748,2.000000 
z"/>
<path fill="#F4F4F4" opacity="1.000000" stroke="none" 
	d="
M1875.250000,2.000000 
	C1876.297729,6.545548 1880.373657,7.784211 1883.296387,9.483032 
	C1910.847778,25.496792 1938.546021,41.257301 1966.185913,57.119026 
	C1968.774048,58.604271 1971.115723,60.574860 1973.802856,61.822628 
	C1987.719849,68.285179 1985.943726,66.466080 1985.980469,83.192497 
	C1986.060059,119.499504 1985.876465,155.807678 1986.121216,192.113220 
	C1986.166382,198.798447 1984.439453,202.686554 1978.099121,206.254532 
	C1945.707886,224.482498 1913.692261,243.381332 1881.646240,262.217316 
	C1875.319214,265.936340 1870.315430,266.189301 1863.434326,262.070618 
	C1832.393188,243.491104 1800.908203,225.647156 1769.430664,207.807190 
	C1761.112671,203.092972 1757.510986,197.319138 1757.715454,187.133102 
	C1758.443726,150.840530 1758.146606,114.523293 1757.863037,78.218315 
	C1757.812744,71.797287 1759.546997,68.320602 1765.485962,64.988464 
	C1791.819458,50.213997 1817.700195,34.633362 1843.782227,19.408974 
	C1850.663818,15.392109 1857.696045,11.633937 1864.624512,7.696076 
	C1866.589600,6.579170 1869.077148,6.014752 1869.898804,2.689007 
	C1871.500000,2.000000 1873.000000,2.000000 1875.250000,2.000000 
z"/>
<path fill="#F4F4F4" opacity="1.000000" stroke="none" 
	d="
M2198.000000,2229.062744 
	C2193.234619,2230.646973 2189.403320,2233.351318 2185.389648,2235.679443 
	C2161.861816,2249.327148 2138.319824,2262.950439 2114.786377,2276.588379 
	C2106.462402,2281.412109 2098.082031,2286.143799 2089.859619,2291.134766 
	C2085.682861,2293.669922 2082.208252,2293.414062 2077.943604,2290.888428 
	C2050.832520,2274.832764 2023.552612,2259.062500 1996.341553,2243.175049 
	C1989.181396,2238.994629 1982.158691,2234.569336 1974.896240,2230.577637 
	C1971.164673,2228.526367 1969.948120,2225.736084 1969.956177,2221.669434 
	C1970.035034,2182.054443 1970.071777,2142.439453 1969.917603,2102.824951 
	C1969.897949,2097.768555 1971.973633,2095.174316 1976.234497,2092.737305 
	C2005.317017,2076.104248 2034.230225,2059.174805 2063.209229,2042.360107 
	C2068.087158,2039.529907 2073.581787,2037.448486 2077.783447,2033.845337 
	C2083.117432,2029.271118 2087.376221,2031.295288 2092.102051,2034.071411 
	C2122.416260,2051.878174 2152.709717,2069.720215 2183.083740,2087.424561 
	C2187.370117,2089.922852 2192.058105,2091.733154 2197.280029,2093.930908 
	C2198.000000,2138.708496 2198.000000,2183.416992 2198.000000,2229.062744 
z"/>
<path fill="#F4F4F4" opacity="1.000000" stroke="none" 
	d="
M1647.999878,3378.000000 
	C1660.325562,3378.000244 1671.668579,3378.370605 1682.970215,3377.847656 
	C1688.803955,3377.577637 1692.398193,3379.757568 1695.102783,3384.452637 
	C1700.239380,3393.369629 1705.447266,3402.245850 1710.548950,3411.182617 
	C1724.704834,3435.980713 1738.557007,3460.958008 1753.136353,3485.504150 
	C1756.853516,3491.762695 1756.147095,3496.524902 1752.766724,3502.038818 
	C1735.413574,3530.343750 1718.760132,3559.058350 1702.901855,3588.226562 
	C1692.185303,3607.937744 1692.281860,3607.989990 1669.959229,3607.989990 
	C1636.647949,3607.989990 1603.334961,3607.821289 1570.026611,3608.131836 
	C1563.317383,3608.194092 1558.823853,3606.531494 1555.428833,3600.460938 
	C1544.915527,3581.662842 1534.035278,3563.069092 1523.218262,3544.441650 
	C1514.552124,3529.517822 1505.922729,3514.568604 1496.954346,3499.826904 
	C1493.966064,3494.914795 1494.152832,3490.924316 1497.048462,3486.051514 
	C1510.763306,3462.973633 1524.650635,3439.975830 1537.510864,3416.422363 
	C1543.249512,3405.912354 1550.272095,3396.162598 1555.328491,3385.303223 
	C1557.914429,3379.749512 1561.941895,3377.829346 1568.052979,3377.889404 
	C1594.366455,3378.148193 1620.683960,3378.000000 1647.999878,3378.000000 
z"/>
<path fill="#F4F4F4" opacity="1.000000" stroke="none" 
	d="
M396.766113,2945.298096 
	C418.185486,2957.475342 438.934174,2969.346924 459.804504,2981.000732 
	C465.966156,2984.441406 468.245270,2988.973877 468.170837,2996.236328 
	C467.788727,3033.536865 467.795532,3070.845215 468.161743,3108.145996 
	C468.234711,3115.577637 465.465515,3119.154785 459.130463,3122.658203 
	C436.190308,3135.343750 413.693481,3148.830078 391.009888,3161.980713 
	C379.810516,3168.473389 368.547363,3174.856201 357.359161,3181.367676 
	C353.914978,3183.372070 351.309387,3183.335205 347.472626,3181.072998 
	C313.165161,3160.842773 278.664917,3140.936768 244.081909,3121.179443 
	C239.757446,3118.708984 237.906631,3115.961670 237.924530,3110.991699 
	C238.066025,3071.689453 238.071381,3032.385986 237.917328,2993.083740 
	C237.897873,2988.122070 239.644318,2985.117920 243.934586,2982.726318 
	C255.527756,2976.263672 266.917511,2969.436768 278.408783,2962.790527 
	C297.084290,2951.988770 315.775970,2941.214600 334.462158,2930.431152 
	C337.335449,2928.772949 340.530121,2927.501953 343.032928,2925.403809 
	C349.677124,2919.834717 355.812042,2920.926025 362.675385,2925.237549 
	C373.627838,2932.117920 384.966461,2938.383789 396.766113,2945.298096 
z"/>
<path fill="#F4F4F4" opacity="1.000000" stroke="none" 
	d="
M1920.457031,3303.577393 
	C1933.475708,3326.019043 1945.946167,3347.939697 1958.685303,3369.703125 
	C1961.125488,3373.872070 1961.357300,3376.689697 1958.653809,3381.256104 
	C1938.538940,3415.230225 1918.829102,3449.446045 1899.292114,3483.757080 
	C1896.574951,3488.528809 1893.452759,3490.111572 1888.194336,3490.089355 
	C1849.236450,3489.923584 1810.277100,3489.939209 1771.318970,3490.074219 
	C1766.466187,3490.091064 1763.333984,3488.633545 1760.856079,3484.265381 
	C1752.673462,3469.841064 1744.015015,3455.687500 1735.737427,3441.315674 
	C1723.994385,3420.926758 1712.563599,3400.356689 1700.659424,3380.063477 
	C1698.531738,3376.436523 1698.056885,3374.175537 1700.357544,3370.320557 
	C1713.449219,3348.383057 1726.152344,3326.213379 1738.937744,3304.093750 
	C1746.244019,3291.453369 1753.599854,3278.837158 1760.636597,3266.047119 
	C1763.240601,3261.314209 1766.688965,3259.882568 1771.943848,3259.908691 
	C1809.902588,3260.097168 1847.864014,3260.156250 1885.821655,3259.877930 
	C1892.846436,3259.826416 1897.007324,3262.813965 1900.203003,3268.448975 
	C1906.751343,3279.995850 1913.396729,3291.487549 1920.457031,3303.577393 
z"/>
<path fill="#F4F4F4" opacity="1.000000" stroke="none" 
	d="
M150.794525,2356.687744 
	C167.853455,2346.941162 184.300247,2337.603516 200.717148,2328.213867 
	C210.508423,2322.613770 220.244034,2316.916016 230.021835,2311.291992 
	C234.294113,2308.834717 238.421677,2309.931641 242.308090,2312.191406 
	C265.822052,2325.864258 289.278229,2339.636475 312.801666,2353.292725 
	C323.132660,2359.290283 333.458618,2365.317383 344.025482,2370.877686 
	C348.499878,2373.231934 350.087341,2376.218018 350.070709,2381.127930 
	C349.937561,2420.411133 349.925812,2459.695312 350.084137,2498.978516 
	C350.104218,2503.964355 348.276428,2506.918457 344.023804,2509.311768 
	C333.910431,2515.003906 324.048920,2521.140869 314.013428,2526.973633 
	C290.209290,2540.809326 266.277466,2554.428223 242.600662,2568.477539 
	C237.407318,2571.559570 233.855316,2571.723145 228.304230,2568.451172 
	C195.722946,2549.246094 162.798721,2530.619385 129.879898,2511.992676 
	C122.937172,2508.064453 119.628487,2503.410645 119.765579,2494.733154 
	C120.338730,2458.454590 120.251587,2422.159180 119.828781,2385.876709 
	C119.727867,2377.216797 123.189796,2372.344971 130.441574,2368.650146 
	C137.223114,2365.195068 143.609558,2360.964355 150.794525,2356.687744 
z"/>
<path fill="#F4F4F4" opacity="1.000000" stroke="none" 
	d="
M238.000610,2632.000000 
	C238.000610,2617.336426 238.704910,2603.623535 237.753677,2590.026611 
	C237.116760,2580.922607 240.587997,2575.928955 248.105698,2571.853516 
	C260.946045,2564.892822 273.411560,2557.244141 286.099640,2549.998291 
	C306.579987,2538.302246 327.235352,2526.904785 347.517395,2514.876221 
	C351.393463,2512.577637 354.005157,2512.709961 357.418213,2514.666260 
	C372.979431,2523.587891 388.589203,2532.425049 404.156616,2541.336182 
	C420.872040,2550.904297 437.556335,2560.526855 454.263763,2570.109131 
	C455.995544,2571.102295 457.790131,2571.986328 459.559143,2572.914062 
	C465.645935,2576.107422 468.272614,2580.572998 468.187988,2587.990967 
	C467.762268,2625.311035 467.812622,2662.640137 468.147247,2699.961914 
	C468.212799,2707.270996 465.785553,2711.075928 459.290894,2714.593262 
	C439.442139,2725.341797 420.092743,2737.013428 400.564178,2748.352051 
	C387.066193,2756.188965 373.586395,2764.057373 360.112427,2771.935547 
	C354.962646,2774.946777 350.049988,2774.391357 345.018250,2771.469482 
	C311.707428,2752.125000 278.453064,2732.679199 244.923431,2713.720947 
	C239.308975,2710.546143 237.844009,2706.874512 237.905319,2700.983398 
	C238.141113,2678.324463 238.000702,2655.661377 238.000610,2632.000000 
z"/>
<path fill="#F4F4F4" opacity="1.000000" stroke="none" 
	d="
M1494.000000,2156.000000 
	C1494.000000,2176.977539 1493.464355,2196.975830 1494.245972,2216.922852 
	C1494.591064,2225.726807 1490.997925,2230.405762 1483.927368,2234.048096 
	C1470.939819,2240.738525 1458.557373,2248.491699 1445.966431,2255.886230 
	C1425.649780,2267.817383 1404.912598,2279.033936 1384.628174,2291.017822 
	C1380.857178,2293.245605 1378.260986,2293.459717 1374.739502,2291.436768 
	C1359.775757,2282.840820 1344.690552,2274.455811 1329.747437,2265.824951 
	C1309.925537,2254.375977 1290.291870,2242.596924 1270.353638,2231.356201 
	C1265.609619,2228.681641 1263.890259,2225.625000 1263.914429,2220.315674 
	C1264.088135,2182.026123 1264.120605,2143.735107 1263.893799,2105.446289 
	C1263.857178,2099.246094 1266.524780,2095.235107 1271.341431,2092.405518 
	C1288.507080,2082.322021 1305.783569,2072.427246 1323.018799,2062.462158 
	C1338.527710,2053.495361 1354.189697,2044.779175 1369.474976,2035.445923 
	C1375.937866,2031.499634 1380.958374,2030.433960 1388.162476,2034.808960 
	C1418.781372,2053.403809 1449.447144,2072.018311 1481.026001,2088.883789 
	C1492.258179,2094.882324 1494.844482,2101.754883 1494.192139,2113.058594 
	C1493.387939,2126.996338 1494.000000,2141.015869 1494.000000,2156.000000 
z"/>
<path fill="#F4F4F4" opacity="1.000000" stroke="none" 
	d="
M1671.923584,662.009399 
	C1687.743286,652.788940 1702.867554,643.826477 1718.065430,634.990356 
	C1728.679321,628.819336 1739.625122,623.182190 1749.950684,616.569763 
	C1754.129028,613.893982 1757.130371,614.292847 1760.842651,616.448669 
	C1794.118774,635.773254 1827.380005,655.124207 1860.734375,674.313049 
	C1867.341919,678.114380 1870.358154,682.689880 1870.236572,690.949219 
	C1869.692505,727.894531 1869.836548,764.853760 1870.140625,801.804565 
	C1870.199707,808.989929 1868.041626,812.922485 1861.460693,816.522400 
	C1838.474854,829.096069 1815.994385,842.593628 1793.322998,855.741943 
	C1782.706055,861.899292 1772.128052,868.125183 1761.458130,874.189209 
	C1757.104248,876.663574 1753.053467,876.387390 1748.404785,873.678040 
	C1715.440308,854.465637 1682.337158,835.488892 1649.163940,816.638428 
	C1642.715210,812.973938 1639.795044,808.363220 1639.861450,800.663879 
	C1640.183105,763.380371 1640.120728,726.091919 1639.890869,688.807129 
	C1639.853882,682.802673 1641.491577,678.778503 1646.939575,675.943481 
	C1655.178223,671.656372 1663.165527,666.886230 1671.923584,662.009399 
z"/>
<path fill="#F4F4F4" opacity="1.000000" stroke="none" 
	d="
M1415.346191,2450.651123 
	C1406.367676,2445.477539 1398.072388,2440.587402 1389.692505,2435.846436 
	C1384.409302,2432.857422 1381.756836,2429.134521 1381.822632,2422.420898 
	C1382.192017,2384.771973 1382.206055,2347.114990 1381.816528,2309.466553 
	C1381.743530,2302.421875 1384.252563,2298.357422 1390.005615,2295.124268 
	C1404.190796,2287.152100 1418.253052,2278.960693 1432.339355,2270.813721 
	C1451.308350,2259.843018 1470.354492,2248.999756 1489.142212,2237.726562 
	C1494.218628,2234.680664 1497.729980,2234.138184 1503.417114,2237.396973 
	C1537.413452,2256.876709 1571.237915,2276.646973 1605.113159,2296.333008 
	C1610.120728,2299.243164 1612.139160,2302.307617 1612.106323,2308.073242 
	C1611.889771,2346.057861 1611.852905,2384.045166 1612.121460,2422.029053 
	C1612.171509,2429.105957 1608.964233,2433.099609 1603.355225,2436.303467 
	C1570.192505,2455.245117 1536.978149,2474.100098 1504.026489,2493.403076 
	C1498.548340,2496.612305 1494.128418,2496.390137 1489.198608,2493.531006 
	C1464.785645,2479.372559 1440.393311,2465.178955 1415.346191,2450.651123 
z"/>
<path fill="#F4F4F4" opacity="1.000000" stroke="none" 
	d="
M1869.566040,402.181854 
	C1866.137573,408.656891 1859.872314,410.316559 1854.879883,413.268127 
	C1830.587646,427.629974 1805.908813,441.336853 1781.407959,455.347534 
	C1774.494263,459.301117 1767.666992,463.413391 1760.900879,467.615204 
	C1756.739624,470.199371 1753.018921,469.852356 1748.842773,467.409241 
	C1716.179077,448.299561 1683.509644,429.197052 1650.659424,410.411285 
	C1643.037476,406.052643 1639.541748,401.081329 1639.726440,391.605591 
	C1640.420898,355.972473 1640.268677,320.314240 1639.804688,284.673615 
	C1639.699341,276.582306 1642.262085,271.613525 1649.135742,267.780060 
	C1663.048828,260.020874 1676.686279,251.769302 1690.489990,243.811722 
	C1709.475464,232.866837 1728.663086,222.260681 1747.430908,210.956329 
	C1753.149902,207.511597 1757.201660,207.842667 1762.830078,211.133163 
	C1795.505371,230.235733 1828.402100,248.961639 1861.331299,267.625580 
	C1867.340576,271.031586 1870.294800,274.929779 1870.201660,282.467621 
	C1869.712036,322.104492 1869.883789,361.749542 1869.566040,402.181854 
z"/>
<path fill="#F4F4F4" opacity="1.000000" stroke="none" 
	d="
M1530.758301,2070.704834 
	C1520.106812,2076.963867 1510.028076,2082.751221 1500.076782,2088.750000 
	C1496.846069,2090.697510 1494.266235,2089.295166 1491.712769,2087.800293 
	C1469.649536,2074.884766 1447.846924,2061.504395 1425.506592,2049.090332 
	C1413.886841,2042.633423 1402.729614,2035.328979 1390.767944,2029.541626 
	C1384.186035,2026.357178 1381.780518,2022.010376 1381.845825,2014.638672 
	C1382.179810,1976.982300 1382.142090,1939.320557 1381.869995,1901.663208 
	C1381.820557,1894.838867 1383.807861,1891.086426 1390.136353,1887.668335 
	C1410.287964,1876.783813 1429.882080,1864.869873 1449.739014,1853.436157 
	C1463.557129,1845.479614 1477.524780,1837.780029 1491.267700,1829.697266 
	C1495.000000,1827.502197 1498.156006,1827.948975 1501.562256,1829.802612 
	C1509.445190,1834.092529 1517.404663,1838.249634 1525.188110,1842.713257 
	C1550.826904,1857.416382 1576.329102,1872.359375 1602.049438,1886.917358 
	C1608.767212,1890.719604 1612.250488,1895.183472 1612.163696,1903.453613 
	C1611.775635,1940.442383 1611.799438,1977.439331 1612.168335,2014.428467 
	C1612.237915,2021.399048 1609.917603,2025.567017 1604.078613,2028.828003 
	C1589.578979,2036.925537 1575.261108,2045.347778 1560.846069,2053.597412 
	C1551.045288,2059.206787 1541.203613,2064.745117 1530.758301,2070.704834 
z"/>
<path fill="#F4F4F4" opacity="1.000000" stroke="none" 
	d="
M345.501282,2778.901123 
	C349.475677,2781.768555 350.047241,2785.175293 350.040222,2789.050781 
	C349.969666,2828.021484 349.847321,2866.993408 350.164215,2905.961426 
	C350.210449,2911.643799 347.686279,2914.604980 343.537994,2917.057129 
	C334.680298,2922.293701 325.767731,2927.438721 316.831421,2932.540039 
	C292.035828,2946.694580 267.075562,2960.569824 242.520935,2975.129639 
	C237.340561,2978.201416 233.457626,2978.114502 228.770126,2975.419189 
	C212.942627,2966.318115 197.073578,2957.289307 181.246017,2948.188477 
	C165.997299,2939.420410 150.781555,2930.594482 135.547409,2921.801025 
	C133.533279,2920.638428 131.563782,2919.368896 129.458206,2918.399658 
	C121.797935,2914.873779 119.724670,2909.019287 119.822853,2900.703125 
	C120.251442,2864.402344 120.181931,2828.091553 119.852020,2791.788818 
	C119.789955,2784.959961 121.777061,2780.647705 127.730911,2777.291260 
	C145.366318,2767.348389 162.777466,2757.007812 180.293732,2746.853027 
	C196.085556,2737.697510 212.045456,2728.819824 227.624298,2719.316406 
	C232.907928,2716.093018 237.168350,2716.040527 242.305099,2719.096436 
	C259.703247,2729.446777 277.204834,2739.624756 294.730011,2749.759521 
	C311.396942,2759.397461 328.143250,2768.897949 345.501282,2778.901123 
z"/>
<path fill="#F4F4F4" opacity="1.000000" stroke="none" 
	d="
M1852.000000,2384.000000 
	C1852.000000,2358.687012 1852.284180,2334.368408 1851.812744,2310.064697 
	C1851.684814,2303.471680 1853.803223,2299.460938 1859.249634,2296.359131 
	C1886.938599,2280.590576 1914.566772,2264.715332 1942.218018,2248.880615 
	C1948.268555,2245.415771 1954.499512,2242.229004 1960.324585,2238.420410 
	C1964.775391,2235.510254 1968.577026,2235.363281 1973.193237,2238.084961 
	C2002.351562,2255.276611 2031.605957,2272.305176 2060.864258,2289.326416 
	C2065.741211,2292.163574 2070.832275,2294.582031 2075.614014,2297.652100 
	C2080.006104,2300.472168 2082.083008,2303.696533 2082.063965,2308.999268 
	C2081.925049,2347.633057 2081.907471,2386.267822 2082.077148,2424.901367 
	C2082.102539,2430.720459 2079.631348,2433.981445 2074.754883,2436.680420 
	C2040.487427,2455.647217 2006.654907,2475.375000 1973.039185,2495.471680 
	C1968.855835,2497.972656 1965.229980,2497.970459 1961.005493,2495.513184 
	C1926.865356,2475.657227 1892.674927,2455.887939 1858.418945,2436.232666 
	C1853.844849,2433.607910 1851.838135,2430.259521 1851.927612,2424.965088 
	C1852.152832,2411.646729 1852.000732,2398.322021 1852.000000,2384.000000 
z"/>
<path fill="#F4F4F4" opacity="1.000000" stroke="none" 
	d="
M1546.653687,462.650909 
	C1567.683838,450.458801 1588.063110,438.607300 1608.449829,426.768707 
	C1616.488770,422.100433 1624.582886,417.525787 1632.573975,412.777405 
	C1635.977661,410.755005 1638.520142,410.553772 1642.423096,412.856415 
	C1676.744141,433.103943 1711.248169,453.044891 1745.874023,472.767548 
	C1750.702148,475.517609 1752.104858,478.746979 1752.083984,483.947479 
	C1751.928467,522.603271 1751.881958,561.260803 1752.126709,599.915710 
	C1752.163452,605.711365 1750.170044,609.125244 1745.272095,611.890686 
	C1730.816650,620.052673 1716.548584,628.545959 1702.196167,636.890747 
	C1682.963989,648.072998 1663.629028,659.083374 1644.550903,670.522339 
	C1640.003296,673.249084 1636.419800,673.711609 1631.775757,670.975525 
	C1613.178101,660.018738 1594.401001,649.366577 1575.714355,638.560547 
	C1560.479614,629.750854 1545.388672,620.684387 1529.994141,612.165161 
	C1525.603516,609.735413 1523.881104,607.052917 1523.902466,602.061096 
	C1524.072266,562.405640 1524.077637,522.748779 1523.910156,483.093323 
	C1523.885498,477.265411 1526.256714,473.817871 1531.257690,471.322266 
	C1536.302368,468.804749 1541.099976,465.792267 1546.653687,462.650909 
z"/>
<path fill="#F4F4F4" opacity="1.000000" stroke="none" 
	d="
M645.225220,2952.694336 
	C661.634583,2962.246094 677.259399,2971.704102 693.284912,2980.426025 
	C699.674683,2983.903564 702.219849,2988.013428 702.153931,2995.372314 
	C701.819580,3032.674561 701.658447,3069.987549 702.260071,3107.283203 
	C702.396362,3115.731689 699.073486,3120.264648 692.478638,3123.728027 
	C679.243835,3130.679199 666.528259,3138.521484 653.631897,3146.061035 
	C633.283508,3157.957031 612.587708,3169.259521 592.277405,3181.218262 
	C588.858948,3183.230957 586.460144,3183.520996 583.295837,3181.650879 
	C561.297913,3168.651123 539.323853,3155.609619 517.241272,3142.754883 
	C505.763580,3136.073975 494.221405,3129.472900 482.431915,3123.370117 
	C476.370667,3120.232422 473.805817,3116.289307 473.859406,3109.276611 
	C474.152191,3070.974121 474.084473,3032.667725 473.908997,2994.364014 
	C473.881805,2988.424805 475.564545,2984.511719 480.980896,2981.410156 
	C514.102722,2962.444580 547.074646,2943.216309 580.027344,2923.957520 
	C585.334717,2920.855713 589.544861,2920.330566 595.410645,2923.991455 
	C611.450500,2934.001709 628.158203,2942.941406 645.225220,2952.694336 
z"/>
<path fill="#F4F4F4" opacity="1.000000" stroke="none" 
	d="
M1251.990967,3842.000000 
	C1221.337402,3842.000000 1191.677002,3841.724365 1162.028564,3842.194336 
	C1154.629883,3842.311768 1150.307617,3839.619629 1146.901855,3833.617920 
	C1136.413086,3815.133789 1125.745728,3796.750977 1115.175781,3778.312988 
	C1106.257080,3762.754639 1097.473267,3747.117432 1088.387939,3731.657227 
	C1086.838745,3729.020996 1086.488525,3727.402832 1088.172363,3724.597412 
	C1095.520142,3712.355713 1102.480103,3699.881592 1109.604736,3687.505615 
	C1121.200684,3667.362793 1132.818481,3647.232910 1144.415527,3627.090820 
	C1145.245728,3625.648926 1146.011108,3624.167480 1146.755127,3622.678711 
	C1150.054810,3616.077148 1154.911621,3613.677979 1162.696777,3613.781006 
	C1199.676880,3614.271484 1236.668335,3614.163086 1273.652466,3613.863770 
	C1281.125732,3613.803223 1285.723633,3615.825928 1289.622925,3622.718018 
	C1307.932129,3655.079590 1326.691406,3687.191650 1345.726562,3719.132812 
	C1349.740601,3725.868164 1349.001465,3731.108643 1345.305298,3737.400146 
	C1330.336914,3762.878906 1315.707031,3788.556396 1300.908691,3814.135254 
	C1296.753174,3821.318359 1292.227417,3828.295898 1288.286743,3835.592041 
	C1285.509521,3840.733887 1281.513550,3842.286377 1275.977051,3842.073730 
	C1268.324463,3841.779785 1260.652344,3842.000000 1251.990967,3842.000000 
z"/>
<path fill="#F4F4F4" opacity="1.000000" stroke="none" 
	d="
M1769.260132,614.614502 
	C1760.668823,611.514099 1757.667969,606.423889 1757.786743,597.615356 
	C1758.289551,560.320190 1758.139404,523.013306 1757.872437,485.713226 
	C1757.823975,478.926880 1759.784790,475.177551 1766.062744,471.676544 
	C1795.914185,455.029083 1825.349365,437.634979 1854.924438,420.492279 
	C1858.369019,418.495636 1862.070312,416.784546 1865.110596,414.282562 
	C1870.322021,409.993683 1874.939575,410.937134 1880.300537,414.084106 
	C1912.926636,433.235870 1945.598389,452.313080 1978.446289,471.080444 
	C1984.178711,474.355682 1986.144897,478.318909 1986.109741,484.698944 
	C1985.898682,522.998901 1985.886719,561.301331 1986.119751,599.601074 
	C1986.159424,606.111755 1983.800293,609.829529 1978.182251,613.058838 
	C1946.823486,631.083923 1915.630859,649.400574 1884.499023,667.816101 
	C1876.934448,672.290833 1870.620728,673.816040 1862.083252,668.385803 
	C1843.059326,656.285400 1823.093872,645.666748 1803.529541,634.414001 
	C1792.310059,627.960999 1781.124878,621.448853 1769.260132,614.614502 
z"/>
<path fill="#F4F4F4" opacity="1.000000" stroke="none" 
	d="
M1806.423584,2277.542969 
	C1817.927979,2284.295654 1828.740112,2290.806152 1839.840332,2296.781738 
	C1844.213135,2299.135742 1846.097168,2301.913818 1846.078857,2306.924561 
	C1845.932617,2346.890625 1845.949097,2386.857422 1846.068970,2426.823486 
	C1846.081421,2430.968506 1844.799683,2433.454102 1841.100830,2435.583984 
	C1808.604858,2454.296631 1776.224121,2473.209717 1743.806885,2492.059326 
	C1743.232056,2492.393555 1742.578857,2492.607422 1742.039795,2492.987305 
	C1735.134888,2497.854980 1729.048218,2497.577881 1721.388062,2492.961914 
	C1688.988525,2473.437988 1656.142578,2454.651123 1623.329224,2435.822266 
	C1619.270386,2433.493164 1617.909546,2430.815430 1617.924438,2426.319824 
	C1618.055908,2386.687012 1618.049072,2347.052979 1617.937256,2307.420166 
	C1617.923828,2302.638184 1619.226074,2299.556641 1623.711182,2297.009521 
	C1654.302734,2279.636719 1685.136597,2262.624756 1714.978882,2244.030518 
	C1727.029663,2236.521973 1736.052856,2235.750488 1748.122803,2243.667480 
	C1766.684937,2255.842773 1786.540039,2266.046631 1806.423584,2277.542969 
z"/>
<path fill="#F4F4F4" opacity="1.000000" stroke="none" 
	d="
M1579.216553,1046.691528 
	C1562.690063,1037.325317 1546.810425,1028.310791 1530.877075,1019.392151 
	C1525.747314,1016.520813 1523.804077,1012.607910 1523.849731,1006.494934 
	C1524.138062,967.862122 1524.104004,929.225525 1523.884277,890.591797 
	C1523.849609,884.501709 1525.877686,881.197815 1531.295532,878.103577 
	C1562.414673,860.331177 1593.236938,842.039307 1624.183838,823.964661 
	C1626.765869,822.456665 1629.614624,821.402344 1632.182495,819.873474 
	C1636.395142,817.365356 1640.355835,817.820618 1644.416870,820.203979 
	C1671.032593,835.823914 1697.649902,851.441650 1724.312500,866.981384 
	C1731.197388,870.994141 1738.119995,874.982666 1745.265137,878.494812 
	C1750.000854,880.822632 1752.134766,883.767944 1752.106567,889.285767 
	C1751.903809,928.918884 1751.920776,968.553833 1752.095703,1008.187195 
	C1752.117920,1013.233032 1750.191895,1015.742981 1745.882935,1018.195923 
	C1722.235718,1031.657349 1698.841187,1045.561646 1675.306763,1059.222412 
	C1664.682739,1065.389160 1653.917358,1071.311768 1643.254517,1077.412354 
	C1639.208618,1079.727295 1635.984863,1079.901978 1631.471558,1077.125244 
	C1614.517822,1066.694336 1597.091675,1057.031128 1579.216553,1046.691528 
z"/>
<path fill="#F4F4F4" opacity="1.000000" stroke="none" 
	d="
M1525.354004,2081.347168 
	C1553.933716,2064.982666 1581.935669,2049.082275 1609.711670,2032.796753 
	C1613.124756,2030.795654 1615.512817,2030.471069 1618.688721,2032.336792 
	C1645.298706,2047.970215 1671.910522,2063.601074 1698.574707,2079.141846 
	C1705.747803,2083.322510 1712.999268,2087.395752 1720.408813,2091.133789 
	C1725.757690,2093.832275 1728.153198,2097.451904 1728.116211,2103.703369 
	C1727.885010,2142.673096 1727.920166,2181.645020 1728.086182,2220.615479 
	C1728.110596,2226.343262 1725.922363,2229.739258 1721.022339,2232.557861 
	C1688.224976,2251.422852 1655.525513,2270.458740 1622.880981,2289.587402 
	C1616.951538,2293.061768 1612.416504,2293.549805 1605.785889,2289.456787 
	C1582.917725,2275.340332 1559.331787,2262.385498 1536.007446,2249.009277 
	C1526.215332,2243.393555 1516.492676,2237.644531 1506.544556,2232.318359 
	C1501.405762,2229.567139 1499.870850,2225.677002 1499.918823,2220.115967 
	C1500.114136,2197.467773 1500.000000,2174.816895 1500.000000,2152.166992 
	C1500.000122,2136.511963 1500.378784,2120.843506 1499.821533,2105.208252 
	C1499.584839,2098.566406 1501.939697,2094.583008 1507.433105,2091.604004 
	C1513.267090,2088.440674 1518.955566,2085.009033 1525.354004,2081.347168 
z"/>
<path fill="#F4F4F4" opacity="1.000000" stroke="none" 
	d="
M1762.001221,1843.999390 
	C1788.555786,1859.256348 1814.391235,1874.299805 1840.374268,1889.083862 
	C1844.366699,1891.355469 1846.075928,1893.969971 1846.062988,1898.542480 
	C1845.949341,1938.540527 1845.932617,1978.539307 1846.086304,2018.537109 
	C1846.104004,2023.157715 1844.464233,2025.671753 1840.463379,2027.915161 
	C1823.371338,2037.497925 1806.480225,2047.439331 1789.518921,2057.255127 
	C1773.709717,2066.404297 1757.757080,2075.318848 1742.167236,2084.827881 
	C1735.617065,2088.822998 1730.119263,2090.020020 1723.020996,2085.720215 
	C1703.989380,2074.192139 1684.533936,2063.365234 1665.278076,2052.205811 
	C1651.198853,2044.046387 1637.236084,2035.682861 1623.071411,2027.675903 
	C1619.423462,2025.613892 1617.908447,2023.254883 1617.922729,2019.012329 
	C1618.057495,1979.014404 1618.063843,1939.015503 1617.923218,1899.017578 
	C1617.905762,1894.048218 1619.747925,1891.299072 1624.076050,1888.818481 
	C1656.925171,1869.990356 1689.683472,1851.000366 1722.292969,1831.760376 
	C1729.143799,1827.718262 1735.116699,1827.423950 1741.740723,1831.820312 
	C1748.098389,1836.039917 1754.786987,1839.760986 1762.001221,1843.999390 
z"/>
<path fill="#F4F4F4" opacity="1.000000" stroke="none" 
	d="
M1670.438110,1655.551270 
	C1686.843750,1665.097046 1702.555054,1674.406250 1718.564209,1683.171509 
	C1725.372925,1686.899414 1728.357544,1691.254761 1728.237671,1699.566284 
	C1727.694458,1737.194092 1727.842773,1774.835327 1728.142334,1812.468628 
	C1728.197266,1819.386108 1725.949585,1822.955688 1719.752686,1826.369995 
	C1696.505127,1839.178955 1673.731445,1852.847534 1650.769531,1866.175659 
	C1640.436035,1872.173584 1630.041260,1878.066772 1619.748291,1884.132935 
	C1615.496948,1886.638184 1611.566895,1886.145630 1607.528931,1883.762939 
	C1585.523682,1870.778809 1563.532471,1857.770508 1541.469482,1844.884888 
	C1530.862793,1838.690308 1520.206787,1832.565186 1509.384399,1826.760132 
	C1503.045166,1823.359741 1499.675537,1819.403687 1499.781006,1811.355347 
	C1500.274414,1773.726196 1500.122192,1736.086304 1499.879761,1698.452148 
	C1499.839355,1692.183105 1501.188843,1688.376099 1507.230103,1685.023438 
	C1531.599487,1671.500366 1555.534790,1657.195557 1579.638306,1643.192993 
	C1589.110352,1637.690308 1598.778076,1632.497681 1608.008057,1626.616699 
	C1612.260132,1623.907471 1615.304321,1623.767944 1619.728271,1626.399414 
	C1636.275146,1636.242065 1653.126953,1645.572266 1670.438110,1655.551270 
z"/>
<path fill="#F4F4F4" opacity="1.000000" stroke="none" 
	d="
M593.532410,2780.655273 
	C604.372925,2773.960449 614.501038,2767.617188 624.853821,2761.664795 
	C649.606506,2747.433350 674.611206,2733.632080 699.157043,2719.056152 
	C704.065125,2716.141602 707.481873,2716.317871 711.818359,2718.879395 
	C721.250671,2724.450195 730.752319,2729.903564 740.235779,2735.387207 
	C760.348083,2747.016846 780.279968,2758.975586 800.636902,2770.160156 
	C819.801575,2780.689453 820.000000,2780.328369 820.000000,2801.952881 
	C819.999939,2835.928467 819.768677,2869.907227 820.188538,2903.877441 
	C820.276001,2910.952148 817.683838,2914.784668 811.931458,2918.090088 
	C778.836975,2937.106689 745.854919,2956.319336 712.880920,2975.544922 
	C708.457275,2978.124023 704.312805,2978.590332 699.750610,2975.935059 
	C688.274597,2969.255127 676.687927,2962.765381 665.182739,2956.135010 
	C645.626526,2944.865234 626.100952,2933.542480 606.554199,2922.256592 
	C605.403015,2921.591797 604.197998,2921.010498 602.984985,2920.463623 
	C594.979431,2916.854492 591.517029,2911.556885 591.704773,2901.924805 
	C592.418762,2865.298340 591.967712,2828.649658 592.031860,2792.009277 
	C592.038147,2788.399414 591.247498,2784.675293 593.532410,2780.655273 
z"/>
<path fill="#F4F4F4" opacity="1.000000" stroke="none" 
	d="
M1735.995117,2166.000000 
	C1735.995361,2144.673096 1736.179688,2124.343262 1735.884155,2104.020752 
	C1735.795044,2097.892822 1738.024902,2094.281738 1743.296753,2091.255127 
	C1776.122925,2072.408691 1808.809326,2053.318359 1841.493408,2034.225586 
	C1846.657349,2031.209106 1850.839722,2030.547852 1856.725708,2034.055664 
	C1890.382446,2054.113770 1924.379272,2073.603516 1958.375000,2093.086914 
	C1962.357544,2095.369385 1964.075684,2097.970215 1964.062500,2102.541260 
	C1963.948120,2142.195068 1963.941772,2181.849854 1964.070801,2221.503662 
	C1964.085815,2226.116455 1962.300049,2228.805176 1958.388184,2231.024170 
	C1947.995605,2236.920166 1937.839722,2243.231445 1927.507935,2249.237061 
	C1903.968018,2262.919678 1880.281860,2276.354980 1856.888672,2290.282959 
	C1851.975586,2293.208008 1848.181152,2293.601318 1843.263428,2290.698486 
	C1819.533203,2276.690674 1795.663086,2262.920166 1771.831177,2249.084961 
	C1762.352295,2243.582275 1752.967163,2237.899414 1743.301514,2232.744629 
	C1737.919312,2229.874268 1735.773804,2226.112305 1735.883911,2219.981689 
	C1736.200928,2202.326172 1735.995361,2184.661133 1735.995117,2166.000000 
z"/>
<path fill="#F4F4F4" opacity="1.000000" stroke="none" 
	d="
M1463.927124,437.992645 
	C1446.866821,428.214935 1430.669067,418.376984 1413.976685,409.465424 
	C1407.291138,405.896210 1405.761108,401.501526 1405.837524,394.426117 
	C1406.200684,360.764496 1405.999756,327.096771 1406.000122,293.431244 
	C1406.000122,288.431427 1406.122314,283.427826 1405.965698,278.432953 
	C1405.839355,274.406372 1407.071777,271.655640 1410.849365,269.517151 
	C1433.106934,256.917023 1455.244507,244.104294 1477.388306,231.304138 
	C1487.450928,225.487411 1497.619019,219.822006 1507.397217,213.554214 
	C1515.342041,208.461502 1521.752686,207.189896 1530.916626,212.922928 
	C1554.835449,227.886673 1579.795532,241.184494 1604.317261,255.187210 
	C1612.681763,259.963745 1620.853760,265.093658 1629.355103,269.607819 
	C1633.805054,271.970734 1634.043701,275.518005 1634.024048,279.659454 
	C1633.959106,293.325348 1634.000000,306.991760 1634.000000,320.657959 
	C1634.000122,345.990448 1633.871704,371.324066 1634.100098,396.654480 
	C1634.150146,402.204376 1632.804932,405.565643 1627.507690,408.494568 
	C1606.293091,420.224365 1585.440674,432.609375 1564.460083,444.762207 
	C1552.102295,451.920441 1539.649414,458.923828 1527.453979,466.349487 
	C1522.314087,469.479156 1517.976807,469.576782 1512.760254,466.458374 
	C1496.798706,456.916412 1480.192017,448.472198 1463.927124,437.992645 
z"/>
<path fill="#F4F4F4" opacity="1.000000" stroke="none" 
	d="
M1647.999878,3614.000000 
	C1660.665405,3614.000000 1672.336060,3614.197998 1683.994629,3613.909668 
	C1689.207642,3613.780518 1692.446045,3615.250977 1695.205566,3620.079590 
	C1713.991455,3652.949707 1733.004395,3685.692383 1752.243896,3718.299316 
	C1756.287598,3725.152588 1756.231812,3730.940430 1752.209595,3737.761475 
	C1732.979126,3770.374268 1713.982910,3803.126221 1695.155762,3835.973389 
	C1692.665283,3840.318359 1689.870361,3842.092285 1684.926270,3842.075195 
	C1645.263428,3841.938477 1605.599854,3841.956055 1565.936768,3842.061768 
	C1561.568237,3842.073486 1558.640137,3841.097412 1556.276123,3836.897949 
	C1544.220215,3815.482666 1531.832153,3794.253662 1519.507690,3772.989990 
	C1512.679443,3761.208984 1505.947266,3749.364014 1498.785400,3737.786865 
	C1494.713013,3731.203613 1494.354370,3725.397461 1498.546753,3718.573486 
	C1507.237671,3704.427734 1515.287231,3689.887939 1523.597534,3675.508301 
	C1532.571167,3659.980957 1541.545898,3644.454102 1550.507690,3628.919922 
	C1551.339111,3627.478516 1552.111206,3626.000244 1552.856934,3624.512207 
	C1556.824463,3616.597412 1562.617554,3613.450928 1572.014526,3613.739746 
	C1596.988770,3614.506592 1622.002197,3614.000000 1647.999878,3614.000000 
z"/>
<path fill="#F4F4F4" opacity="1.000000" stroke="none" 
	d="
M402.045776,2939.997559 
	C388.734253,2932.370850 376.271057,2924.702881 363.350006,2917.905029 
	C357.803406,2914.987305 355.851105,2911.554688 355.886993,2905.439697 
	C356.111755,2867.115234 356.115356,2828.787842 355.888794,2790.463379 
	C355.850464,2783.980713 358.121216,2780.197998 363.775116,2776.964355 
	C396.347321,2758.335693 428.734863,2739.383301 461.120728,2720.430664 
	C467.225250,2716.858154 472.169586,2716.001465 479.142914,2720.212158 
	C511.830109,2739.951660 544.979553,2758.930908 578.128418,2777.894043 
	C582.520020,2780.406250 584.112854,2783.141357 584.092529,2788.070557 
	C583.930359,2827.395508 583.892334,2866.722168 584.121582,2906.046387 
	C584.155640,2911.888916 581.979248,2914.859375 577.006470,2917.714600 
	C545.907715,2935.569092 515.040283,2953.826172 484.076813,2971.916992 
	C481.779846,2973.259033 479.205261,2974.147217 476.980194,2975.586914 
	C471.788696,2978.946289 467.136566,2977.926758 462.088379,2974.936523 
	C442.374634,2963.259521 422.514404,2951.830078 402.045776,2939.997559 
z"/>
<path fill="#F4F4F4" opacity="1.000000" stroke="none" 
	d="
M1505.994629,3527.930176 
	C1515.219482,3543.759277 1524.184570,3558.893066 1533.026123,3574.098877 
	C1539.200562,3584.717529 1544.915283,3595.617432 1551.448120,3606.006348 
	C1553.680664,3609.556641 1553.222778,3611.978271 1551.447266,3615.016357 
	C1533.026855,3646.534424 1513.930542,3677.685547 1496.496094,3709.740234 
	C1486.952881,3727.286377 1486.628052,3723.833496 1470.913086,3723.937744 
	C1435.940796,3724.169678 1400.963989,3723.814697 1365.993530,3724.162842 
	C1358.344727,3724.238770 1354.041260,3721.702393 1350.224976,3714.972168 
	C1331.891479,3682.641357 1313.000244,3650.625732 1294.245361,3618.534668 
	C1291.035889,3613.042969 1290.315552,3608.549072 1294.199951,3602.290527 
	C1306.096924,3583.123779 1316.909058,3563.283447 1328.132202,3543.698730 
	C1336.220093,3529.584961 1344.282471,3515.456543 1352.374146,3501.345215 
	C1354.557251,3497.537842 1357.778198,3495.935303 1362.271240,3495.946289 
	C1401.907959,3496.043701 1441.545166,3496.048828 1481.181885,3495.938965 
	C1485.655151,3495.926514 1488.642334,3497.241699 1490.852051,3501.336426 
	C1495.579224,3510.096191 1500.714111,3518.635986 1505.994629,3527.930176 
z"/>
<path fill="#F4F4F4" opacity="1.000000" stroke="none" 
	d="
M970.080688,3724.009766 
	C965.098450,3724.009521 961.037903,3723.557617 957.119507,3724.111572 
	C950.731079,3725.013916 947.220886,3721.738281 944.404663,3716.781738 
	C930.629395,3692.537598 916.839050,3668.301758 903.030273,3644.076660 
	C897.934875,3635.137939 893.326538,3625.848389 887.436462,3617.462891 
	C883.890869,3612.415527 884.228760,3608.645508 887.002747,3603.917480 
	C895.233032,3589.889893 903.319763,3575.778076 911.445557,3561.689453 
	C920.897583,3545.301758 930.335327,3528.906250 939.764587,3512.505615 
	C940.427246,3511.353027 941.002991,3510.146973 941.564392,3508.940186 
	C945.856995,3499.714844 951.948914,3495.386963 963.238525,3495.667969 
	C999.186707,3496.563477 1035.173218,3496.196289 1071.140137,3495.840576 
	C1078.689819,3495.766113 1082.931030,3497.748779 1086.706665,3504.831299 
	C1097.316162,3524.733398 1109.091553,3544.014893 1120.423828,3563.531006 
	C1128.256714,3577.020752 1135.973633,3590.580566 1144.029907,3603.935547 
	C1147.671021,3609.971680 1144.875366,3614.807129 1142.070435,3619.725098 
	C1134.835938,3632.410645 1127.478516,3645.026123 1120.134888,3657.648926 
	C1108.620605,3677.440430 1096.803101,3697.063477 1085.721313,3717.093506 
	C1082.592773,3722.748291 1078.862305,3724.135010 1072.982178,3724.102051 
	C1039.010986,3723.912354 1005.038330,3724.009521 970.080688,3724.009766 
z"/>
<path fill="#F4F4F4" opacity="1.000000" stroke="none" 
	d="
M1707.542114,3593.574463 
	C1724.403564,3564.533447 1740.801758,3536.064697 1757.224121,3507.609863 
	C1758.383179,3505.601562 1759.978027,3503.812012 1760.920044,3501.717773 
	C1763.007690,3497.076660 1766.542236,3495.911865 1771.371216,3495.927979 
	C1810.333008,3496.058105 1849.295898,3496.078125 1888.257446,3495.908691 
	C1893.542114,3495.885742 1896.618042,3497.548584 1899.324585,3502.297607 
	C1919.041992,3536.894531 1938.959839,3571.379395 1959.202026,3605.671143 
	C1961.537964,3609.628418 1961.104614,3612.145020 1959.153320,3615.510254 
	C1939.679443,3649.096680 1920.179321,3682.668457 1900.909058,3716.371826 
	C1897.960571,3721.528320 1894.627441,3724.160400 1888.359253,3724.123535 
	C1849.398315,3723.894775 1810.435059,3723.930664 1771.473511,3724.092773 
	C1765.779907,3724.116455 1762.316895,3722.035645 1759.485596,3717.108887 
	C1740.472656,3684.022949 1721.240845,3651.062500 1702.049927,3618.079102 
	C1699.275391,3613.310059 1697.120239,3608.911133 1701.900024,3603.778320 
	C1704.303101,3601.197266 1705.398071,3597.398438 1707.542114,3593.574463 
z"/>
</svg>