<?xml version="1.0" encoding="UTF-8" standalone="no"?><!DOCTYPE svg PUBLIC "-//W3C//DTD SVG 1.1//EN" "http://www.w3.org/Graphics/SVG/1.1/DTD/svg11.dtd"><svg width="100%" height="100%" viewBox="0 0 161 161" version="1.1" xmlns="http://www.w3.org/2000/svg" xmlns:xlink="http://www.w3.org/1999/xlink" xml:space="preserve" xmlns:serif="http://www.serif.com/" style="fill-rule:evenodd;clip-rule:evenodd;stroke-linejoin:round;stroke-miterlimit:2;"><path d="M79.853,97c-9.416,0 -17.145,-7.733 -17.145,-17.145c-0,-9.417 7.729,-17.15 17.145,-17.15c9.417,-0 17.146,7.733 17.146,17.15c0,9.412 -7.729,17.145 -17.146,17.145m0,-47.07c-16.475,-0 -29.925,13.445 -29.925,29.925c0,16.475 13.45,29.92 29.925,29.92c16.475,0 29.925,-13.445 29.925,-29.92c0,-16.48 -13.45,-29.925 -29.925,-29.925" style="fill:#7f7f7e;fill-rule:nonzero;"/><path d="M86.242,132.304l-0,-7.396c-0,-3.533 -2.859,-6.387 -6.388,-6.387c-3.533,-0 -6.387,2.854 -6.387,6.387l-0,7.396c-24.042,-2.858 -43.209,-22.025 -46.234,-46.229l7.396,-0c3.534,-0 6.388,-2.858 6.388,-6.392c-0,-3.529 -2.854,-6.387 -6.388,-6.387l-7.396,-0c2.859,-24.042 22.025,-43.204 46.234,-46.229l-0,7.395c-0,3.53 2.854,6.388 6.387,6.388c3.529,-0 6.388,-2.858 6.388,-6.388l-0,-7.395c24.041,2.854 43.204,22.02 46.233,46.229l-7.4,-0c-3.529,-0 -6.387,2.858 -6.387,6.387c-0,3.534 2.858,6.392 6.387,6.392l7.4,-0c-3.029,24.204 -22.192,43.371 -46.233,46.229m67.079,-58.842l-8.238,0c-3.025,-31.1 -27.908,-55.979 -59.008,-59.008l0,-8.067c0,-3.533 -2.862,-6.387 -6.387,-6.387c-3.534,-0 -6.388,2.854 -6.388,6.387l0,8.238c-31.104,3.025 -55.983,27.904 -59.012,59.008l-7.9,0c-3.534,0 -6.388,2.859 -6.388,6.388c0,3.529 2.854,6.387 6.388,6.387l8.241,0c3.021,31.1 27.904,55.984 59.004,59.009l0,8.237c0,3.529 2.859,6.388 6.388,6.388c3.529,-0 6.387,-2.859 6.387,-6.388l0,-8.237c31.105,-3.025 55.988,-27.909 59.009,-59.009l8.241,0c3.525,0 6.388,-2.858 6.388,-6.387c-0,-3.529 -3.196,-6.559 -6.725,-6.559" style="fill:#7f7f7e;fill-rule:nonzero;"/></svg>