<svg version="1.1" id="Layer_1" xmlns="http://www.w3.org/2000/svg" xmlns:xlink="http://www.w3.org/1999/xlink" x="0px" y="0px"
	width="100%" height="100%" viewBox="0 0 1728 870" enable-background="new 0 0 1728 870" xml:space="preserve">
<path fill="transparent" opacity="1.000000" stroke="none" 
	d="
M1729.000000,426.000000 
	C1729.000000,574.318481 1729.000000,722.636963 1729.000000,870.977722 
	C1153.072510,870.977722 577.144958,870.977722 1.108733,870.977722 
	C1.108733,581.101562 1.108733,291.203033 1.108733,1.000000 
	C393.359131,1.000000 785.718323,1.000000 1178.576172,1.352183 
	C1179.680908,2.448164 1180.141846,3.435215 1180.915894,3.898102 
	C1188.582764,8.482241 1196.274170,13.026593 1204.011230,17.491308 
	C1217.940430,25.529308 1231.818481,33.665092 1245.942871,41.346508 
	C1248.258057,42.605656 1252.363403,42.906216 1254.557617,41.691761 
	C1275.000366,30.376627 1295.233887,18.681437 1315.447388,6.957121 
	C1318.192993,5.364600 1320.493408,3.004650 1323.000000,0.999999 
	C1327.026978,1.000000 1331.053955,1.000000 1335.491455,1.343794 
	C1328.645630,6.267752 1321.518555,11.069788 1314.107666,15.384352 
	C1295.595337,26.162025 1276.968140,36.742855 1258.351318,47.340073 
	C1255.161255,49.155987 1253.874634,51.421871 1253.893066,55.323158 
	C1254.071411,92.983856 1254.201904,130.647766 1253.819458,168.305435 
	C1253.748169,175.317810 1255.165771,180.055725 1261.965698,182.662750 
	C1264.549438,183.653320 1266.838135,185.413025 1269.261353,186.822372 
	C1299.097534,204.175797 1328.958496,221.487061 1358.741211,238.931915 
	C1362.824707,241.323822 1366.333740,241.249023 1370.371094,238.860016 
	C1390.059570,227.209763 1409.824707,215.688217 1429.604126,204.192535 
	C1442.956421,196.432220 1456.339355,188.722565 1469.792969,181.140350 
	C1473.445068,179.082138 1475.351929,176.741684 1475.126343,172.155151 
	C1474.692749,163.344345 1475.000000,154.497101 1475.000000,145.664963 
	C1475.000000,115.502403 1474.963989,85.339745 1475.046875,55.177414 
	C1475.056885,51.525387 1474.422241,49.151161 1470.503906,47.466091 
	C1464.758179,44.995110 1459.450073,41.491173 1454.001099,38.348125 
	C1435.053955,27.419302 1416.103271,16.495941 1397.231201,5.438699 
	C1395.535767,4.445425 1394.397217,2.502111 1393.000000,1.000005 
	C1397.026978,1.000000 1401.053955,1.000000 1405.591553,1.345129 
	C1406.524658,2.170616 1406.857666,2.806437 1407.382812,3.108995 
	C1429.896362,16.081295 1452.387695,29.093596 1475.033691,41.831017 
	C1476.748413,42.795425 1480.014648,42.568768 1481.819702,41.565163 
	C1502.206055,30.231314 1522.479614,18.692616 1542.689941,7.046722 
	C1545.391113,5.490166 1547.576050,3.037659 1550.000000,1.000021 
	C1554.359741,1.000000 1558.719360,1.000000 1563.491211,1.342368 
	C1560.906738,3.680637 1558.007690,5.845193 1554.897705,7.645290 
	C1533.076782,20.275480 1511.222656,32.848660 1489.354248,45.396618 
	C1483.947876,48.498779 1480.639038,51.824200 1480.749390,59.286442 
	C1481.305542,96.925323 1481.051514,134.577011 1480.933960,172.223740 
	C1480.922119,176.046143 1482.230347,178.432983 1485.492432,180.273239 
	C1496.754517,186.626556 1507.958130,193.084488 1519.135986,199.585297 
	C1540.943970,212.268372 1562.817017,224.845047 1584.444336,237.830048 
	C1590.312500,241.353287 1594.866211,240.587799 1600.404175,237.229340 
	C1617.408691,226.917175 1634.673706,217.032715 1651.886353,207.066589 
	C1667.670532,197.927643 1683.594116,189.025467 1699.240479,179.658585 
	C1701.173706,178.501266 1702.829956,175.131607 1702.843140,172.777267 
	C1703.062256,133.299011 1703.040405,93.819008 1702.873535,54.340183 
	C1702.865479,52.433613 1701.498657,49.892502 1699.950317,48.758915 
	C1696.084717,45.928764 1691.765259,43.712765 1687.600464,41.297794 
	C1667.083374,29.400871 1646.542480,17.544830 1626.056030,5.595313 
	C1623.883179,4.327865 1622.011475,2.544178 1620.000000,1.000003 
	C1623.694214,1.000000 1627.388550,1.000000 1631.590210,1.342213 
	C1633.473633,2.820564 1634.722778,4.174679 1636.244629,5.060055 
	C1657.261230,17.287539 1678.301880,29.473640 1699.372070,41.608463 
	C1703.258789,43.846817 1706.828735,44.616787 1711.308838,41.657120 
	C1716.741333,38.068222 1723.062988,35.825310 1729.000000,33.000008 
	C1729.000000,87.025833 1729.000000,141.051666 1728.643311,195.504028 
	C1722.823975,192.796829 1717.326172,189.721909 1711.910645,186.508636 
	C1708.309204,184.371811 1704.949341,183.083023 1700.773682,185.554596 
	C1683.343872,195.871140 1665.805298,206.004471 1648.283203,216.164429 
	C1632.083008,225.557831 1615.871216,234.931351 1599.620117,244.236176 
	C1596.504883,246.019852 1594.867065,248.018951 1594.888550,252.040588 
	C1595.079956,287.864105 1595.389404,323.695923 1594.760132,359.509430 
	C1594.573730,370.120087 1595.740356,378.357178 1607.161499,381.769073 
	C1607.922974,381.996490 1608.535400,382.687531 1609.253540,383.099518 
	C1638.894287,400.104004 1668.682983,416.858917 1698.065186,434.298828 
	C1704.117188,437.890991 1708.314331,437.593353 1713.739258,433.981201 
	C1718.490967,430.817383 1723.888062,428.622772 1729.000000,426.000000 
M1569.953979,392.438538 
	C1553.338013,402.063934 1536.697144,411.646759 1520.114746,421.329590 
	C1508.962280,427.841705 1498.038696,434.764069 1486.701172,440.930237 
	C1483.051147,442.915375 1480.945923,444.692474 1480.955322,449.016174 
	C1481.039917,488.331665 1480.948120,527.647644 1481.160400,566.962158 
	C1481.171875,569.085693 1482.906860,572.085938 1484.735229,573.176575 
	C1503.079468,584.119202 1521.633179,594.710083 1540.083862,605.475403 
	C1554.650635,613.974609 1569.075073,622.722412 1583.754395,631.020508 
	C1586.802856,632.743713 1591.508789,634.743408 1594.053101,633.574158 
	C1603.302979,629.323364 1611.977417,623.812622 1620.835571,618.719421 
	C1634.754395,610.716370 1648.657104,602.685059 1662.546631,594.631226 
	C1674.720825,587.572021 1686.867310,580.465454 1699.025635,573.379150 
	C1701.579224,571.890808 1703.108887,570.166260 1703.095581,566.713135 
	C1702.944580,527.564636 1702.947632,488.415222 1703.079224,449.266632 
	C1703.092529,445.296814 1701.207275,442.965240 1698.246948,441.248291 
	C1680.498535,430.954559 1662.672607,420.794922 1644.911377,410.523254 
	C1628.386353,400.966431 1611.944824,391.264343 1595.351440,381.828552 
	C1593.875610,380.989288 1591.219849,380.966522 1589.677856,381.721008 
	C1583.179077,384.900818 1576.894775,388.519287 1569.953979,392.438538 
M1368.000000,719.500000 
	C1368.000000,734.157776 1368.083740,748.816406 1367.937500,763.472717 
	C1367.903320,766.891846 1368.965698,768.997192 1372.064209,770.618835 
	C1378.343018,773.905151 1384.436157,777.548035 1390.586548,781.077759 
	C1404.981812,789.339111 1419.413696,797.538452 1433.739258,805.919312 
	C1445.472656,812.783630 1456.964111,820.067993 1468.794312,826.756714 
	C1472.835571,829.041687 1476.874512,833.033997 1482.473999,829.334778 
	C1487.310791,826.139404 1492.553711,823.562134 1497.587402,820.660278 
	C1526.040283,804.257629 1554.500488,787.867676 1582.908813,771.387939 
	C1586.164185,769.499390 1589.130737,767.566650 1589.107178,762.682861 
	C1588.916138,723.208069 1588.968018,683.731873 1589.061646,644.256348 
	C1589.068970,641.162720 1588.008057,639.529053 1585.307373,638.043640 
	C1574.563110,632.134216 1563.940308,626.000610 1553.333374,619.845276 
	C1529.393799,605.952881 1505.516602,591.952454 1481.512085,578.173523 
	C1479.946533,577.274902 1477.181519,577.159607 1475.552002,577.919006 
	C1470.312744,580.360840 1465.296509,583.300964 1460.280640,586.198730 
	C1447.077026,593.826538 1433.921509,601.537476 1420.742310,609.207581 
	C1404.693726,618.547668 1388.675659,627.940979 1372.562988,637.169189 
	C1368.937500,639.245667 1367.859253,641.898560 1367.895996,646.045532 
	C1368.108887,670.195435 1368.000000,694.348206 1368.000000,719.500000 
M1476.962646,184.147339 
	C1459.986450,193.889450 1443.004639,203.621490 1426.035767,213.376373 
	C1407.896240,223.804382 1389.802856,234.313721 1371.602173,244.633835 
	C1368.657471,246.303482 1367.950684,248.445374 1367.955933,251.556015 
	C1368.022949,291.216309 1368.051392,330.876892 1367.908203,370.536774 
	C1367.895996,373.915161 1369.197388,375.757050 1371.830566,377.281830 
	C1384.761719,384.770172 1397.646240,392.339050 1410.593140,399.800140 
	C1431.429688,411.807983 1452.369507,423.639069 1473.093994,435.836578 
	C1476.608521,437.905029 1479.276733,438.195526 1482.694580,436.181702 
	C1492.547607,430.376282 1502.523438,424.779724 1512.419556,419.046844 
	C1536.398315,405.155823 1560.327393,391.178467 1584.363281,377.387024 
	C1587.794312,375.418243 1589.122192,373.194763 1589.102783,369.125488 
	C1588.927124,332.298798 1588.826660,295.469482 1589.141357,258.644684 
	C1589.206787,250.976242 1588.531738,245.524231 1580.260376,241.795715 
	C1569.418823,236.908722 1559.458374,230.065430 1549.124756,224.053650 
	C1531.918457,214.043579 1514.774414,203.924072 1497.482544,194.064056 
	C1491.075806,190.410843 1484.325928,187.359406 1476.962646,184.147339 
z"/>
<path fill="#d4d4d4" opacity="0.5" stroke="none" 
	d="
M1619.531372,1.000003 
	C1622.011475,2.544178 1623.883179,4.327865 1626.056030,5.595313 
	C1646.542480,17.544830 1667.083374,29.400871 1687.600464,41.297794 
	C1691.765259,43.712765 1696.084717,45.928764 1699.950317,48.758915 
	C1701.498657,49.892502 1702.865479,52.433613 1702.873535,54.340183 
	C1703.040405,93.819008 1703.062256,133.299011 1702.843140,172.777267 
	C1702.829956,175.131607 1701.173706,178.501266 1699.240479,179.658585 
	C1683.594116,189.025467 1667.670532,197.927643 1651.886353,207.066589 
	C1634.673706,217.032715 1617.408691,226.917175 1600.404175,237.229340 
	C1594.866211,240.587799 1590.312500,241.353287 1584.444336,237.830048 
	C1562.817017,224.845047 1540.943970,212.268372 1519.135986,199.585297 
	C1507.958130,193.084488 1496.754517,186.626556 1485.492432,180.273239 
	C1482.230347,178.432983 1480.922119,176.046143 1480.933960,172.223740 
	C1481.051514,134.577011 1481.305542,96.925323 1480.749390,59.286442 
	C1480.639038,51.824200 1483.947876,48.498779 1489.354248,45.396618 
	C1511.222656,32.848660 1533.076782,20.275480 1554.897705,7.645290 
	C1558.007690,5.845193 1560.906738,3.680637 1563.951660,1.342368 
	C1582.354248,1.000000 1600.708496,1.000000 1619.531372,1.000003 
z"/>
<path fill="#d4d4d4" opacity="0.5" stroke="none" 
	d="
M1392.531372,1.000005 
	C1394.397217,2.502111 1395.535767,4.445425 1397.231201,5.438699 
	C1416.103271,16.495941 1435.053955,27.419302 1454.001099,38.348125 
	C1459.450073,41.491173 1464.758179,44.995110 1470.503906,47.466091 
	C1474.422241,49.151161 1475.056885,51.525387 1475.046875,55.177414 
	C1474.963989,85.339745 1475.000000,115.502403 1475.000000,145.664963 
	C1475.000000,154.497101 1474.692749,163.344345 1475.126343,172.155151 
	C1475.351929,176.741684 1473.445068,179.082138 1469.792969,181.140350 
	C1456.339355,188.722565 1442.956421,196.432220 1429.604126,204.192535 
	C1409.824707,215.688217 1390.059570,227.209763 1370.371094,238.860016 
	C1366.333740,241.249023 1362.824707,241.323822 1358.741211,238.931915 
	C1328.958496,221.487061 1299.097534,204.175797 1269.261353,186.822372 
	C1266.838135,185.413025 1264.549438,183.653320 1261.965698,182.662750 
	C1255.165771,180.055725 1253.748169,175.317810 1253.819458,168.305435 
	C1254.201904,130.647766 1254.071411,92.983856 1253.893066,55.323158 
	C1253.874634,51.421871 1255.161255,49.155987 1258.351318,47.340073 
	C1276.968140,36.742855 1295.595337,26.162025 1314.107666,15.384352 
	C1321.518555,11.069788 1328.645630,6.267752 1335.950928,1.343794 
	C1354.687622,1.000000 1373.375122,1.000000 1392.531372,1.000005 
z"/>
<path fill="#d4d4d4" opacity="0.5" stroke="none" 
	d="
M1729.000000,425.531372 
	C1723.888062,428.622772 1718.490967,430.817383 1713.739258,433.981201 
	C1708.314331,437.593353 1704.117188,437.890991 1698.065186,434.298828 
	C1668.682983,416.858917 1638.894287,400.104004 1609.253540,383.099518 
	C1608.535400,382.687531 1607.922974,381.996490 1607.161499,381.769073 
	C1595.740356,378.357178 1594.573730,370.120087 1594.760132,359.509430 
	C1595.389404,323.695923 1595.079956,287.864105 1594.888550,252.040588 
	C1594.867065,248.018951 1596.504883,246.019852 1599.620117,244.236176 
	C1615.871216,234.931351 1632.083008,225.557831 1648.283203,216.164429 
	C1665.805298,206.004471 1683.343872,195.871140 1700.773682,185.554596 
	C1704.949341,183.083023 1708.309204,184.371811 1711.910645,186.508636 
	C1717.326172,189.721909 1722.823975,192.796829 1728.643311,195.965271 
	C1729.000000,272.354218 1729.000000,348.708466 1729.000000,425.531372 
z"/>
<path fill="#d4d4d4" opacity="0.5" stroke="none" 
	d="
M1322.531372,0.999999 
	C1320.493408,3.004650 1318.192993,5.364600 1315.447388,6.957121 
	C1295.233887,18.681437 1275.000366,30.376627 1254.557617,41.691761 
	C1252.363403,42.906216 1248.258057,42.605656 1245.942871,41.346508 
	C1231.818481,33.665092 1217.940430,25.529308 1204.011230,17.491308 
	C1196.274170,13.026593 1188.582764,8.482241 1180.915894,3.898102 
	C1180.141846,3.435215 1179.680908,2.448164 1179.037354,1.352183 
	C1226.687622,1.000000 1274.375122,1.000000 1322.531372,0.999999 
z"/>
<path fill="#d4d4d4" opacity="0.5" stroke="none" 
	d="
M1549.531372,1.000021 
	C1547.576050,3.037659 1545.391113,5.490166 1542.689941,7.046722 
	C1522.479614,18.692616 1502.206055,30.231314 1481.819702,41.565163 
	C1480.014648,42.568768 1476.748413,42.795425 1475.033691,41.831017 
	C1452.387695,29.093596 1429.896362,16.081295 1407.382812,3.108995 
	C1406.857666,2.806437 1406.524658,2.170616 1406.051025,1.345129 
	C1453.687622,1.000000 1501.375122,1.000000 1549.531372,1.000021 
z"/>
<path fill="#d4d4d4" opacity="0.5" stroke="none" 
	d="
M1729.000000,32.531349 
	C1723.062988,35.825310 1716.741333,38.068222 1711.308838,41.657120 
	C1706.828735,44.616787 1703.258789,43.846817 1699.372070,41.608463 
	C1678.301880,29.473640 1657.261230,17.287539 1636.244629,5.060055 
	C1634.722778,4.174679 1633.473633,2.820564 1632.048828,1.342213 
	C1664.223267,1.000000 1696.446655,1.000000 1729.000000,1.000000 
	C1729.000000,11.351890 1729.000000,21.707287 1729.000000,32.531349 
z"/>
<path fill="#d4d4d4" opacity="0.5" stroke="none" 
	d="
M1570.243042,392.207947 
	C1576.894775,388.519287 1583.179077,384.900818 1589.677856,381.721008 
	C1591.219849,380.966522 1593.875610,380.989288 1595.351440,381.828552 
	C1611.944824,391.264343 1628.386353,400.966431 1644.911377,410.523254 
	C1662.672607,420.794922 1680.498535,430.954559 1698.246948,441.248291 
	C1701.207275,442.965240 1703.092529,445.296814 1703.079224,449.266632 
	C1702.947632,488.415222 1702.944580,527.564636 1703.095581,566.713135 
	C1703.108887,570.166260 1701.579224,571.890808 1699.025635,573.379150 
	C1686.867310,580.465454 1674.720825,587.572021 1662.546631,594.631226 
	C1648.657104,602.685059 1634.754395,610.716370 1620.835571,618.719421 
	C1611.977417,623.812622 1603.302979,629.323364 1594.053101,633.574158 
	C1591.508789,634.743408 1586.802856,632.743713 1583.754395,631.020508 
	C1569.075073,622.722412 1554.650635,613.974609 1540.083862,605.475403 
	C1521.633179,594.710083 1503.079468,584.119202 1484.735229,573.176575 
	C1482.906860,572.085938 1481.171875,569.085693 1481.160400,566.962158 
	C1480.948120,527.647644 1481.039917,488.331665 1480.955322,449.016174 
	C1480.945923,444.692474 1483.051147,442.915375 1486.701172,440.930237 
	C1498.038696,434.764069 1508.962280,427.841705 1520.114746,421.329590 
	C1536.697144,411.646759 1553.338013,402.063934 1570.243042,392.207947 
z"/>
<path fill="#d4d4d4" opacity="0.5" stroke="none" 
	d="
M1368.000000,719.000000 
	C1368.000000,694.348206 1368.108887,670.195435 1367.895996,646.045532 
	C1367.859253,641.898560 1368.937500,639.245667 1372.562988,637.169189 
	C1388.675659,627.940979 1404.693726,618.547668 1420.742310,609.207581 
	C1433.921509,601.537476 1447.077026,593.826538 1460.280640,586.198730 
	C1465.296509,583.300964 1470.312744,580.360840 1475.552002,577.919006 
	C1477.181519,577.159607 1479.946533,577.274902 1481.512085,578.173523 
	C1505.516602,591.952454 1529.393799,605.952881 1553.333374,619.845276 
	C1563.940308,626.000610 1574.563110,632.134216 1585.307373,638.043640 
	C1588.008057,639.529053 1589.068970,641.162720 1589.061646,644.256348 
	C1588.968018,683.731873 1588.916138,723.208069 1589.107178,762.682861 
	C1589.130737,767.566650 1586.164185,769.499390 1582.908813,771.387939 
	C1554.500488,787.867676 1526.040283,804.257629 1497.587402,820.660278 
	C1492.553711,823.562134 1487.310791,826.139404 1482.473999,829.334778 
	C1476.874512,833.033997 1472.835571,829.041687 1468.794312,826.756714 
	C1456.964111,820.067993 1445.472656,812.783630 1433.739258,805.919312 
	C1419.413696,797.538452 1404.981812,789.339111 1390.586548,781.077759 
	C1384.436157,777.548035 1378.343018,773.905151 1372.064209,770.618835 
	C1368.965698,768.997192 1367.903320,766.891846 1367.937500,763.472717 
	C1368.083740,748.816406 1368.000000,734.157776 1368.000000,719.000000 
z"/>
<path fill="#d4d4d4" opacity="0.5" stroke="none" 
	d="
M1477.347656,184.090439 
	C1484.325928,187.359406 1491.075806,190.410843 1497.482544,194.064056 
	C1514.774414,203.924072 1531.918457,214.043579 1549.124756,224.053650 
	C1559.458374,230.065430 1569.418823,236.908722 1580.260376,241.795715 
	C1588.531738,245.524231 1589.206787,250.976242 1589.141357,258.644684 
	C1588.826660,295.469482 1588.927124,332.298798 1589.102783,369.125488 
	C1589.122192,373.194763 1587.794312,375.418243 1584.363281,377.387024 
	C1560.327393,391.178467 1536.398315,405.155823 1512.419556,419.046844 
	C1502.523438,424.779724 1492.547607,430.376282 1482.694580,436.181702 
	C1479.276733,438.195526 1476.608521,437.905029 1473.093994,435.836578 
	C1452.369507,423.639069 1431.429688,411.807983 1410.593140,399.800140 
	C1397.646240,392.339050 1384.761719,384.770172 1371.830566,377.281830 
	C1369.197388,375.757050 1367.895996,373.915161 1367.908203,370.536774 
	C1368.051392,330.876892 1368.022949,291.216309 1367.955933,251.556015 
	C1367.950684,248.445374 1368.657471,246.303482 1371.602173,244.633835 
	C1389.802856,234.313721 1407.896240,223.804382 1426.035767,213.376373 
	C1443.004639,203.621490 1459.986450,193.889450 1477.347656,184.090439 
z"/>
</svg>