<svg width="133" height="153" viewBox="0 0 133 153" fill="none" xmlns="http://www.w3.org/2000/svg">
<path d="M33.0419 34.5957H110.712V108.863H33.0419V34.5957Z" fill="#86B6B9" stroke="black"/>
<path d="M132.36 38.375C132.242 38.1551 132.064 37.9775 131.844 37.8506L67.1655 0.504701C66.7425 0.259501 66.218 0.259501 65.7951 0.504701L1.09939 37.8337C0.989392 37.8929 0.896392 37.969 0.811792 38.062C0.549592 38.3158 0.405792 38.671 0.405792 39.0346V113.718C0.405792 114.208 0.667992 114.657 1.09099 114.91L65.7697 152.256C65.9304 152.349 66.1081 152.408 66.2857 152.425C66.3449 152.425 66.3957 152.434 66.4549 152.434C66.6918 152.434 66.9286 152.375 67.1401 152.248L131.836 114.919C131.937 114.86 132.039 114.783 132.123 114.699C132.386 114.445 132.529 114.09 132.529 113.726V39.0346C132.529 38.8063 132.47 38.5779 132.36 38.375ZM98.989 58.3926V94.36C98.989 94.834 98.744 95.273 98.346 95.519C98.126 95.654 97.872 95.73 97.618 95.73H35.3083C34.5554 95.722 33.9379 95.104 33.9379 94.352V58.3841C33.9379 57.9105 34.1832 57.4707 34.5808 57.2255L65.7866 39.2207C66.2096 38.9754 66.7341 38.9754 67.157 39.2207L98.312 57.2086C98.735 57.4538 98.997 57.9021 98.997 58.3926H98.989Z" fill="white"/>
<path d="M55.7455 83.8225C58.8501 83.7802 61.8108 82.5286 63.9932 80.3213C64.3739 79.8815 65.0337 79.8392 65.4651 80.2114C65.5074 80.2452 65.5413 80.279 65.5751 80.3213L65.8627 80.5581C66.2603 80.9556 66.2603 81.5983 65.8627 81.9958C65.8458 82.0127 65.8289 82.0296 65.8035 82.0465C63.1642 84.702 59.5775 86.199 55.8301 86.216C49.3081 86.216 43.3613 81.5645 43.3613 73.6995C43.3613 66.5111 48.3522 61.0902 55.3057 61.0902C58.6386 60.9887 61.8277 62.4433 63.9425 65.0227C65.9135 67.2807 66.9878 70.1814 66.9624 73.1752C67.0132 73.8433 66.5141 74.4183 65.8458 74.4691C65.7866 74.4691 65.7274 74.4691 65.6597 74.4691H46.0936C46.432 80.372 50.7969 83.8225 55.7371 83.8225H55.7455ZM46.1021 72.0758H64.2808C64.1117 70.1814 63.418 68.3716 62.2676 66.8494C60.6603 64.6337 58.0464 63.3736 55.3141 63.492C50.2302 63.492 46.635 66.9424 46.1106 72.0758H46.1021Z" fill="white"/>
<path d="M69.796 84.6344V84.2539C69.8975 83.7042 70.1598 83.2052 70.5658 82.8162L85.0056 63.6865H71.5301C71.0395 63.7457 70.5912 63.399 70.5235 62.9085C70.5235 62.8493 70.515 62.7901 70.5235 62.7225V62.4349C70.5066 61.9444 70.8873 61.5385 71.3694 61.5131C71.4202 61.5131 71.4794 61.5131 71.5301 61.5131H87.306C87.831 61.4877 88.288 61.8852 88.313 62.418C88.313 62.4518 88.313 62.4857 88.313 62.5195V62.8578C88.22 63.4075 87.966 63.9233 87.594 64.3462L73.112 83.4251H88.169C88.694 83.3828 89.142 83.7803 89.184 84.2961C89.184 84.3215 89.184 84.3553 89.184 84.3807V84.6683C89.21 85.176 88.821 85.607 88.313 85.632C88.271 85.632 88.22 85.632 88.178 85.632H70.8111C70.2697 85.649 69.8129 85.218 69.8045 84.6767C69.8045 84.6598 69.8045 84.6429 69.8045 84.626L69.796 84.6344Z" fill="white"/>
</svg>
