<svg width="159" height="183" viewBox="0 0 159 183" fill="none" xmlns="http://www.w3.org/2000/svg">
<path d="M158.748 45.7812C158.606 45.5166 158.392 45.303 158.127 45.1504L80.3154 0.221288C79.8066 -0.0737626 79.1756 -0.0737626 78.6668 0.221288L0.834499 45.13C0.7022 45.2012 0.590255 45.2928 0.488487 45.4047C0.173006 45.7099 0 46.1373 0 46.5747V136.423C0 137.013 0.315481 137.552 0.824322 137.857L78.6363 182.786C78.8296 182.898 79.0433 182.969 79.2571 182.99C79.3283 182.99 79.3894 183 79.4606 183C79.7455 183 80.0305 182.929 80.2849 182.776L158.117 137.867C158.239 137.796 158.361 137.705 158.463 137.603C158.779 137.298 158.952 136.87 158.952 136.433V46.5747C158.952 46.3 158.88 46.0253 158.748 45.7812ZM118.601 69.8634V113.134C118.601 113.704 118.306 114.233 117.827 114.528C117.563 114.691 117.257 114.782 116.952 114.782H41.9896C41.0838 114.772 40.3409 114.029 40.3409 113.124V69.8532C40.3409 69.2835 40.636 68.7544 41.1143 68.4594L78.6566 46.7986C79.1655 46.5035 79.7964 46.5035 80.3053 46.7986L117.786 68.439C118.295 68.7341 118.611 69.2733 118.611 69.8634H118.601Z" fill="white"/>
<rect x="45.5419" y="49.0957" width="78.6702" height="75.2669" fill="white"/>
<path d="M145.36 53.375C145.242 53.1551 145.064 52.9775 144.844 52.8506L80.1655 15.5047C79.7425 15.2595 79.218 15.2595 78.7951 15.5047L14.0994 52.8337C13.9894 52.8929 13.8964 52.969 13.8118 53.062C13.5496 53.3158 13.4058 53.671 13.4058 54.0346V128.718C13.4058 129.208 13.668 129.657 14.091 129.91L78.7697 167.256C78.9304 167.349 79.1081 167.408 79.2857 167.425C79.3449 167.425 79.3957 167.434 79.4549 167.434C79.6918 167.434 79.9286 167.375 80.1401 167.248L144.836 129.919C144.937 129.86 145.039 129.783 145.123 129.699C145.386 129.445 145.529 129.09 145.529 128.726V54.0346C145.529 53.8063 145.47 53.5779 145.36 53.375ZM111.989 73.3926V109.36C111.989 109.834 111.744 110.273 111.346 110.519C111.126 110.654 110.872 110.73 110.618 110.73H48.3083C47.5554 110.722 46.9379 110.104 46.9379 109.352V73.3841C46.9379 72.9105 47.1832 72.4707 47.5808 72.2255L78.7866 54.2207C79.2096 53.9754 79.7341 53.9754 80.157 54.2207L111.312 72.2086C111.735 72.4538 111.997 72.9021 111.997 73.3926H111.989Z" fill="#86B6B9"/>
<path d="M68.7455 98.8225C71.8501 98.7802 74.8108 97.5286 76.9932 95.3213C77.3739 94.8815 78.0337 94.8392 78.4651 95.2114C78.5074 95.2452 78.5413 95.279 78.5751 95.3213L78.8627 95.5581C79.2603 95.9556 79.2603 96.5983 78.8627 96.9958C78.8458 97.0127 78.8289 97.0296 78.8035 97.0465C76.1642 99.702 72.5775 101.199 68.8301 101.216C62.3081 101.216 56.3613 96.5645 56.3613 88.6995C56.3613 81.5111 61.3522 76.0902 68.3057 76.0902C71.6386 75.9887 74.8277 77.4433 76.9425 80.0227C78.9135 82.2807 79.9878 85.1814 79.9624 88.1752C80.0132 88.8433 79.5141 89.4183 78.8458 89.4691C78.7866 89.4691 78.7274 89.4691 78.6597 89.4691H59.0936C59.432 95.372 63.7969 98.8225 68.7371 98.8225H68.7455ZM59.1021 87.0758H77.2808C77.1117 85.1814 76.418 83.3716 75.2676 81.8494C73.6603 79.6337 71.0464 78.3736 68.3141 78.492C63.2302 78.492 59.635 81.9424 59.1106 87.0758H59.1021Z" fill="#86B6B9"/>
<path d="M82.796 99.6344V99.2539C82.8975 98.7042 83.1598 98.2052 83.5658 97.8162L98.0056 78.6865H84.5301C84.0395 78.7457 83.5912 78.399 83.5235 77.9085C83.5235 77.8493 83.515 77.7901 83.5235 77.7225V77.4349C83.5066 76.9444 83.8873 76.5385 84.3694 76.5131C84.4202 76.5131 84.4794 76.5131 84.5301 76.5131H100.306C100.831 76.4877 101.288 76.8852 101.313 77.418C101.313 77.4518 101.313 77.4857 101.313 77.5195V77.8578C101.22 78.4075 100.966 78.9233 100.594 79.3462L86.112 98.4251H101.169C101.694 98.3828 102.142 98.7803 102.184 99.2961C102.184 99.3215 102.184 99.3553 102.184 99.3807V99.6683C102.21 100.176 101.821 100.607 101.313 100.632C101.271 100.632 101.22 100.632 101.178 100.632H83.8111C83.2697 100.649 82.8129 100.218 82.8045 99.6767C82.8045 99.6598 82.8045 99.6429 82.8045 99.626L82.796 99.6344Z" fill="#86B6B9"/>
</svg>
