<svg height="153.956" viewBox="0 0 106.2 153.956" width="106.2" xmlns="http://www.w3.org/2000/svg" xmlns:xlink="http://www.w3.org/1999/xlink"><clipPath id="a"><path d="m0 0h106.2v153.956h-106.2z"/></clipPath><g clip-path="url(#a)"><path d="m106.061 30.59a1.106 1.106 0 0 0 -.413-.421l-51.986-30.021a1.075 1.075 0 0 0 -.433-.141 1.093 1.093 0 0 0 -.671.14l-52 30.01a1.049 1.049 0 0 0 -.232.18 1.1 1.1 0 0 0 -.326.78v60.035a1.093 1.093 0 0 0 .094.443 1.1 1.1 0 0 0 .458.514l51.985 30.02a1.128 1.128 0 0 0 .555.148 1.1 1.1 0 0 0 .549-.147l52-30.009a1.051 1.051 0 0 0 .228-.177 1.1 1.1 0 0 0 .328-.783v-60.035a1.106 1.106 0 0 0 -.138-.535m-26.818 16.093v28.916a1.1 1.1 0 0 1 -.516.932 1.117 1.117 0 0 1 -.587.169l-50.08-.008a1.1 1.1 0 0 1 -1.1-1.1v-28.914a1.1 1.1 0 0 1 .516-.931l25.08-14.474a1.1 1.1 0 0 1 1.1 0l25.038 14.459a1.1 1.1 0 0 1 .549.952" fill="#fff"/><path d="m56.857 84.635a9.5 9.5 0 0 0 6.63-2.815.841.841 0 0 1 1.272 0l.231.193a.813.813 0 0 1 -.038 1.195 11.373 11.373 0 0 1 -8.019 3.354 9.746 9.746 0 0 1 -10.022-10.062c0-5.782 4.009-10.138 9.6-10.138a8.626 8.626 0 0 1 6.939 3.161 9.845 9.845 0 0 1 2.428 6.553.971.971 0 0 1 -1.04 1.041h-15.729a7.608 7.608 0 0 0 7.749 7.517m-7.749-9.444h14.61a8.175 8.175 0 0 0 -1.619-4.2 6.549 6.549 0 0 0 -5.59-2.7c-4.086 0-6.977 2.775-7.4 6.9" fill="#fff" transform="translate(-12.375 -17.506)"/><path d="m75.76 85.414v-.308a2.14 2.14 0 0 1 .617-1.157l11.6-15.382h-10.829a.72.72 0 0 1 -.81-.77v-.231a.712.712 0 0 1 .81-.733h12.682a.769.769 0 0 1 .81.809v.27a2.425 2.425 0 0 1 -.579 1.2l-11.641 15.338h12.1a.759.759 0 0 1 .809.771v.231a.739.739 0 0 1 -.809.772h-13.95a.791.791 0 0 1 -.81-.81" fill="#fff" transform="translate(-19.985 -17.63)"/><g fill="#13182a"><path d="m13.116 202.58c-.205-.28-.336-.579.018-.858l.131-.131c.3-.242.578-.373.858 0a4.43 4.43 0 0 0 3.415 1.661c1.716 0 2.78-.858 2.78-2 0-1.717-1.829-1.941-3.825-2.686-1.287-.485-3.1-1.213-3.1-3.247 0-1.9 1.623-3.284 4.03-3.284a5.05 5.05 0 0 1 3.789 1.548c.224.243.392.523.037.84l-.168.149c-.242.224-.522.354-.839.038a3.774 3.774 0 0 0 -2.8-1.232c-1.455 0-2.5.727-2.5 1.81 0 1.157 1.119 1.586 2.37 2.053 2.033.747 4.553 1.269 4.553 3.956 0 2.09-1.773 3.415-4.255 3.415a5.455 5.455 0 0 1 -4.5-2.034" transform="translate(-3.407 -50.658)"/><path d="m33.489 203.912v-11.012a.511.511 0 0 1 .56-.56h7.034a.486.486 0 0 1 .542.522v.28a.486.486 0 0 1 -.542.522h-6.083v4.036h4.721a.5.5 0 0 1 .56.523v.261a.493.493 0 0 1 -.56.523h-4.721v4.143h6.083a.5.5 0 0 1 .56.522v.281a.5.5 0 0 1 -.56.522h-7.034a.519.519 0 0 1 -.56-.56" transform="translate(-8.834 -50.739)"/><path d="m62.474 204.437h-.727c-.336 0-.41-.186-.579-.522l-.968-2.165h-6.44l-.989 2.164c-.149.336-.224.522-.56.522h-.691c-.336 0-.485-.186-.317-.522l5.3-11.345a.482.482 0 0 1 .448-.355h.13a.526.526 0 0 1 .467.355l5.242 11.345c.169.336.019.522-.317.522m-2.836-3.956-2.65-5.9-2.668 5.9z" transform="translate(-13.489 -50.705)"/><path d="m83.708 203.912c.186.354.018.56-.261.56h-.672c-.354 0-.429-.112-.615-.429l-2.595-4.643h-3.079v4.516a.5.5 0 0 1 -.522.56h-.464a.5.5 0 0 1 -.523-.56v-11.016a.511.511 0 0 1 .56-.56h4.063c2.818 0 4.31 1.324 4.31 3.546a3.239 3.239 0 0 1 -2.8 3.358zm-7.221-5.766h3.433a2.248 2.248 0 1 0 0-4.478h-3.434z" transform="translate(-19.778 -50.739)"/><path d="m94.514 198.326a6.19 6.19 0 0 1 6.306-6.288 6.261 6.261 0 0 1 4.74 2.09.44.44 0 0 1 -.074.709l-.317.261c-.261.205-.5.149-.747-.112a4.8 4.8 0 0 0 -3.564-1.567 4.907 4.907 0 1 0 3.564 8.247c.243-.261.485-.317.747-.112l.317.261a.423.423 0 0 1 .074.691 6.33 6.33 0 0 1 -11.046-4.18" transform="translate(-24.932 -50.658)"/><path d="m117.931 203.912v-11.012a.492.492 0 0 1 .523-.56h.467a.492.492 0 0 1 .522.56v4.8h6.847v-4.8a.492.492 0 0 1 .523-.56h.485c.336 0 .5.2.5.56v11.009c0 .336-.168.56-.5.56h-.485a.5.5 0 0 1 -.523-.56v-4.889h-6.847v4.889a.5.5 0 0 1 -.522.56h-.467a.5.5 0 0 1 -.523-.56" transform="translate(-31.109 -50.739)"/></g></g></svg>